<svg width="164" height="48" viewBox="0 0 164 48" fill="none" xmlns="http://www.w3.org/2000/svg">
<g clip-path="url(#clip0_22_1426)">
<mask id="mask0_22_1426" style="mask-type:luminance" maskUnits="userSpaceOnUse" x="0" y="0" width="164" height="48">
<path d="M164 0H0V48H164V0Z" fill="white"/>
</mask>
<g mask="url(#mask0_22_1426)">
<path d="M6.56006 2.14771L7.46897 4.23951" stroke="#2F7965" stroke-miterlimit="10" stroke-linecap="round"/>
<path d="M7.46899 4.23958L8.37791 3.18079" stroke="#2F7965" stroke-miterlimit="10" stroke-linecap="round"/>
<path d="M8.37793 3.18079L9.28685 5.07283" stroke="#2F7965" stroke-miterlimit="10" stroke-linecap="round"/>
<path d="M9.28687 5.07275L10.1958 6.51317" stroke="#2F7965" stroke-miterlimit="10" stroke-linecap="round"/>
<path d="M10.1957 6.51318L11.1046 8.39607" stroke="#2F7965" stroke-miterlimit="10" stroke-linecap="round"/>
<path d="M11.1046 8.39614L12.0135 8.23059" stroke="#2F7965" stroke-miterlimit="10" stroke-linecap="round"/>
<path d="M12.0135 8.2305L12.9225 3.83154" stroke="#2F7965" stroke-miterlimit="10" stroke-linecap="round"/>
<path d="M12.9225 3.83154L13.8314 8.97626" stroke="#2F7965" stroke-miterlimit="10" stroke-linecap="round"/>
<path d="M13.8314 8.97627L14.7403 7.33899" stroke="#2F7965" stroke-miterlimit="10" stroke-linecap="round"/>
<path d="M14.7404 7.33899L15.6493 9.51712" stroke="#2F7965" stroke-miterlimit="10" stroke-linecap="round"/>
<path d="M15.6492 9.51721L16.5581 11.6495" stroke="#2F7965" stroke-miterlimit="10" stroke-linecap="round"/>
<path d="M16.5581 11.6495L17.467 12.7669" stroke="#2F7965" stroke-miterlimit="10" stroke-linecap="round"/>
<path d="M17.467 12.7669L18.376 12.5554" stroke="#2F7965" stroke-miterlimit="10" stroke-linecap="round"/>
<path d="M18.376 12.5554L19.2849 10.2183" stroke="#2F7965" stroke-miterlimit="10" stroke-linecap="round"/>
<path d="M19.2849 10.2182L20.1938 7.92529" stroke="#2F7965" stroke-miterlimit="10" stroke-linecap="round"/>
<path d="M20.1938 7.9253L21.1028 3.94922" stroke="#2F7965" stroke-miterlimit="10" stroke-linecap="round"/>
<path d="M21.1027 3.94919L22.0116 1.92004" stroke="#2F7965" stroke-miterlimit="10" stroke-linecap="round"/>
<path d="M22.0116 1.92004L22.9205 3.46595" stroke="#2F7965" stroke-miterlimit="10" stroke-linecap="round"/>
<path d="M22.9205 3.46594L23.8294 4.94268" stroke="#2F7965" stroke-miterlimit="10" stroke-linecap="round"/>
<path d="M23.8295 4.94266L24.7384 4.14075" stroke="#2F7965" stroke-miterlimit="10" stroke-linecap="round"/>
<path d="M24.7384 4.14082L25.6473 2.0498" stroke="#2F7965" stroke-miterlimit="10" stroke-linecap="round"/>
<path d="M25.6473 2.0498L26.5563 4.58534" stroke="#2F7965" stroke-miterlimit="10" stroke-linecap="round"/>
<path d="M26.5562 4.58528L27.4651 2.8186" stroke="#2F7965" stroke-miterlimit="10" stroke-linecap="round"/>
<path d="M27.4651 2.8186L28.374 4.1314" stroke="#2F7965" stroke-miterlimit="10" stroke-linecap="round"/>
<path d="M28.374 4.13147L29.2829 4.95504" stroke="#2F7965" stroke-miterlimit="10" stroke-linecap="round"/>
<path d="M29.283 4.95497L30.1919 4.5802" stroke="#2F7965" stroke-miterlimit="10" stroke-linecap="round"/>
<path d="M30.1919 4.58027L31.1008 2.83936" stroke="#2F7965" stroke-miterlimit="10" stroke-linecap="round"/>
<path d="M31.1008 2.83936L32.0097 4.11224" stroke="#2F7965" stroke-miterlimit="10" stroke-linecap="round"/>
<path d="M32.0096 4.11218L32.9186 6.92654" stroke="#2F7965" stroke-miterlimit="10" stroke-linecap="round"/>
<path d="M32.9186 6.92651L33.8275 18.3475" stroke="#2F7965" stroke-miterlimit="10" stroke-linecap="round"/>
<path d="M33.8275 18.3476L34.7364 13.1306" stroke="#2F7965" stroke-miterlimit="10" stroke-linecap="round"/>
<path d="M34.7365 13.1306L35.6454 13.5769" stroke="#2F7965" stroke-miterlimit="10" stroke-linecap="round"/>
<path d="M35.6454 13.5768L36.5543 13.9123" stroke="#2F7965" stroke-miterlimit="10" stroke-linecap="round"/>
<path d="M36.5543 13.9124L37.4632 14.7694" stroke="#2F7965" stroke-miterlimit="10" stroke-linecap="round"/>
<path d="M37.4631 14.7694L38.3721 15.2423" stroke="#2F7965" stroke-miterlimit="10" stroke-linecap="round"/>
<path d="M38.3721 15.2423L39.281 10.3186" stroke="#2F7965" stroke-miterlimit="10" stroke-linecap="round"/>
<path d="M39.281 10.3186L40.1899 12.8265" stroke="#2F7965" stroke-miterlimit="10" stroke-linecap="round"/>
<path d="M40.1899 12.8264L41.0989 15.1368" stroke="#2F7965" stroke-miterlimit="10" stroke-linecap="round"/>
<path d="M41.0989 15.1369L42.0078 13.8749" stroke="#2F7965" stroke-miterlimit="10" stroke-linecap="round"/>
<path d="M42.0078 13.8749L42.9167 15.2754" stroke="#2F7965" stroke-miterlimit="10" stroke-linecap="round"/>
<path d="M42.9166 15.2754L43.8255 14.4268" stroke="#2F7965" stroke-miterlimit="10" stroke-linecap="round"/>
<path d="M43.8256 14.4267L44.7345 13.8778" stroke="#2F7965" stroke-miterlimit="10" stroke-linecap="round"/>
<path d="M44.7345 13.8778L45.6434 15.3735" stroke="#2F7965" stroke-miterlimit="10" stroke-linecap="round"/>
<path d="M45.6434 15.3735L46.5523 19.705" stroke="#2F7965" stroke-miterlimit="10" stroke-linecap="round"/>
<path d="M46.5524 19.705L47.4613 28.8169" stroke="#2F7965" stroke-miterlimit="10" stroke-linecap="round"/>
<path d="M47.4613 28.8169L48.3702 37.9057" stroke="#2F7965" stroke-miterlimit="10" stroke-linecap="round"/>
<path d="M48.3701 37.9058L49.279 44.7872" stroke="#2F7965" stroke-miterlimit="10" stroke-linecap="round"/>
<path d="M49.2791 44.7871L50.188 46.08" stroke="#2F7965" stroke-miterlimit="10" stroke-linecap="round"/>
<path d="M50.188 46.0801L51.0969 45.5078" stroke="#2F7965" stroke-miterlimit="10" stroke-linecap="round"/>
<path d="M51.0969 45.5078L52.0058 36.4709" stroke="#2F7965" stroke-miterlimit="10" stroke-linecap="round"/>
<path d="M52.0059 36.4709L52.9148 38.4638" stroke="#2F7965" stroke-miterlimit="10" stroke-linecap="round"/>
<path d="M52.9148 38.4638L53.8237 36.2863" stroke="#2F7965" stroke-miterlimit="10" stroke-linecap="round"/>
<path d="M53.8237 36.2863L54.7326 41.3643" stroke="#2F7965" stroke-miterlimit="10" stroke-linecap="round"/>
<path d="M54.7325 41.3643L55.6415 37.0022" stroke="#2F7965" stroke-miterlimit="10" stroke-linecap="round"/>
<path d="M55.6415 37.0022L56.5504 37.4228" stroke="#2F7965" stroke-miterlimit="10" stroke-linecap="round"/>
<path d="M56.5504 37.4229L57.4593 35.5425" stroke="#2F7965" stroke-miterlimit="10" stroke-linecap="round"/>
<path d="M57.4594 35.5425L58.3683 36.7266" stroke="#2F7965" stroke-miterlimit="10" stroke-linecap="round"/>
<path d="M58.3683 36.7266L59.2772 38.1186" stroke="#2F7965" stroke-miterlimit="10" stroke-linecap="round"/>
<path d="M59.2772 38.1185L60.1861 34.8309" stroke="#2F7965" stroke-miterlimit="10" stroke-linecap="round"/>
<path d="M60.186 34.831L61.095 31.6692" stroke="#2F7965" stroke-miterlimit="10" stroke-linecap="round"/>
<path d="M61.095 31.6692L62.0039 34.7387" stroke="#2F7965" stroke-miterlimit="10" stroke-linecap="round"/>
<path d="M62.0039 34.7388L62.9128 36.677" stroke="#2F7965" stroke-miterlimit="10" stroke-linecap="round"/>
<path d="M62.9128 36.677L63.8218 34.2889" stroke="#2F7965" stroke-miterlimit="10" stroke-linecap="round"/>
<path d="M63.8218 34.289L64.7307 32.1079" stroke="#2F7965" stroke-miterlimit="10" stroke-linecap="round"/>
<path d="M64.7307 32.1079L65.6396 33.1551" stroke="#2F7965" stroke-miterlimit="10" stroke-linecap="round"/>
<path d="M65.6395 33.155L66.5484 31.3146" stroke="#2F7965" stroke-miterlimit="10" stroke-linecap="round"/>
<path d="M66.5485 31.3146L67.4574 33.3747" stroke="#2F7965" stroke-miterlimit="10" stroke-linecap="round"/>
<path d="M67.4574 33.3747L68.3663 32.005" stroke="#2F7965" stroke-miterlimit="10" stroke-linecap="round"/>
<path d="M68.3663 32.0049L69.2752 25.9098" stroke="#2F7965" stroke-miterlimit="10" stroke-linecap="round"/>
<path d="M69.2753 25.9098L70.1842 21.6809" stroke="#2F7965" stroke-miterlimit="10" stroke-linecap="round"/>
<path d="M70.1842 21.6809L71.0931 25.3765" stroke="#2F7965" stroke-miterlimit="10" stroke-linecap="round"/>
<path d="M71.093 25.3766L72.0019 25.6514" stroke="#2F7965" stroke-miterlimit="10" stroke-linecap="round"/>
<path d="M72.002 25.6515L72.9109 27.0563" stroke="#2F7965" stroke-miterlimit="10" stroke-linecap="round"/>
<path d="M72.9109 27.0563L73.8198 27.604" stroke="#2F7965" stroke-miterlimit="10" stroke-linecap="round"/>
<path d="M73.8198 27.604L74.7287 28.1846" stroke="#2F7965" stroke-miterlimit="10" stroke-linecap="round"/>
<path d="M74.7288 28.1846L75.6377 31.4981" stroke="#2F7965" stroke-miterlimit="10" stroke-linecap="round"/>
<path d="M75.6377 31.498L76.5466 30.1935" stroke="#2F7965" stroke-miterlimit="10" stroke-linecap="round"/>
<path d="M76.5466 30.1935L77.4555 30.6954" stroke="#2F7965" stroke-miterlimit="10" stroke-linecap="round"/>
<path d="M77.4554 30.6954L78.3644 31.4353" stroke="#2F7965" stroke-miterlimit="10" stroke-linecap="round"/>
<path d="M78.3644 31.4353L79.2733 29.9414" stroke="#2F7965" stroke-miterlimit="10" stroke-linecap="round"/>
<path d="M79.2733 29.9414L80.1822 29.379" stroke="#2F7965" stroke-miterlimit="10" stroke-linecap="round"/>
<path d="M80.1823 29.379L81.0912 27.6605" stroke="#2F7965" stroke-miterlimit="10" stroke-linecap="round"/>
<path d="M81.0912 27.6605L82.0001 28.1667" stroke="#2F7965" stroke-miterlimit="10" stroke-linecap="round"/>
<path d="M82 28.1667L82.9089 30.2234" stroke="#2F7965" stroke-miterlimit="10" stroke-linecap="round"/>
<path d="M82.9089 30.2234L83.8179 30.4872" stroke="#2F7965" stroke-miterlimit="10" stroke-linecap="round"/>
<path d="M83.8179 30.4873L84.7268 30.4976" stroke="#2F7965" stroke-miterlimit="10" stroke-linecap="round"/>
<path d="M84.7268 30.4976L85.6357 33.825" stroke="#2F7965" stroke-miterlimit="10" stroke-linecap="round"/>
<path d="M85.6357 33.825L86.5447 33.2684" stroke="#2F7965" stroke-miterlimit="10" stroke-linecap="round"/>
<path d="M86.5447 33.2684L87.4536 33.1044" stroke="#2F7965" stroke-miterlimit="10" stroke-linecap="round"/>
<path d="M87.4536 33.1044L88.3625 30.8695" stroke="#2F7965" stroke-miterlimit="10" stroke-linecap="round"/>
<path d="M88.3624 30.8695L89.2713 31.4226" stroke="#2F7965" stroke-miterlimit="10" stroke-linecap="round"/>
<path d="M89.2714 31.4226L90.1803 31.5551" stroke="#2F7965" stroke-miterlimit="10" stroke-linecap="round"/>
<path d="M90.1803 31.5552L91.0892 32.7587" stroke="#2F7965" stroke-miterlimit="10" stroke-linecap="round"/>
<path d="M91.0892 32.7588L91.9981 32.9386" stroke="#2F7965" stroke-miterlimit="10" stroke-linecap="round"/>
<path d="M91.9982 32.9386L92.9071 35.2555" stroke="#2F7965" stroke-miterlimit="10" stroke-linecap="round"/>
<path d="M92.9071 35.2554L93.816 30.4242" stroke="#2F7965" stroke-miterlimit="10" stroke-linecap="round"/>
<path d="M93.8159 30.4242L94.7248 28.8651" stroke="#2F7965" stroke-miterlimit="10" stroke-linecap="round"/>
<path d="M94.7249 28.865L95.6338 28.5483" stroke="#2F7965" stroke-miterlimit="10" stroke-linecap="round"/>
<path d="M95.6338 28.5483L96.5427 29.1522" stroke="#2F7965" stroke-miterlimit="10" stroke-linecap="round"/>
<path d="M96.5427 29.1523L97.4516 24.5569" stroke="#2F7965" stroke-miterlimit="10" stroke-linecap="round"/>
<path d="M97.4517 24.5569L98.3606 22.334" stroke="#2F7965" stroke-miterlimit="10" stroke-linecap="round"/>
<path d="M98.3606 22.334L99.2695 23.0649" stroke="#2F7965" stroke-miterlimit="10" stroke-linecap="round"/>
<path d="M99.2694 23.065L100.178 21.384" stroke="#2F7965" stroke-miterlimit="10" stroke-linecap="round"/>
<path d="M100.178 21.384L101.087 21.9059" stroke="#2F7965" stroke-miterlimit="10" stroke-linecap="round"/>
<path d="M101.087 21.9058L101.996 21.1533" stroke="#2F7965" stroke-miterlimit="10" stroke-linecap="round"/>
<path d="M101.996 21.1533L102.905 23.4399" stroke="#2F7965" stroke-miterlimit="10" stroke-linecap="round"/>
<path d="M102.905 23.4399L103.814 22.7412" stroke="#2F7965" stroke-miterlimit="10" stroke-linecap="round"/>
<path d="M103.814 22.7412L104.723 23.8918" stroke="#2F7965" stroke-miterlimit="10" stroke-linecap="round"/>
<path d="M104.723 23.8919L105.632 22.7266" stroke="#2F7965" stroke-miterlimit="10" stroke-linecap="round"/>
<path d="M105.632 22.7266L106.541 25.6777" stroke="#2F7965" stroke-miterlimit="10" stroke-linecap="round"/>
<path d="M106.541 25.6777L107.45 28.4429" stroke="#2F7965" stroke-miterlimit="10" stroke-linecap="round"/>
<path d="M107.45 28.4429L108.359 27.3655" stroke="#2F7965" stroke-miterlimit="10" stroke-linecap="round"/>
<path d="M108.359 27.3655L109.268 25.6542" stroke="#2F7965" stroke-miterlimit="10" stroke-linecap="round"/>
<path d="M109.268 25.6541L110.176 20.4873" stroke="#2F7965" stroke-miterlimit="10" stroke-linecap="round"/>
<path d="M110.176 20.4873L111.085 20.5602" stroke="#2F7965" stroke-miterlimit="10" stroke-linecap="round"/>
<path d="M111.085 20.5602L111.994 18.9482" stroke="#2F7965" stroke-miterlimit="10" stroke-linecap="round"/>
<path d="M111.994 18.9483L112.903 18.37" stroke="#2F7965" stroke-miterlimit="10" stroke-linecap="round"/>
<path d="M112.903 18.37L113.812 21.3816" stroke="#2F7965" stroke-miterlimit="10" stroke-linecap="round"/>
<path d="M113.812 21.3816L114.721 21.9212" stroke="#2F7965" stroke-miterlimit="10" stroke-linecap="round"/>
<path d="M114.721 21.9211L115.63 21.9542" stroke="#2F7965" stroke-miterlimit="10" stroke-linecap="round"/>
<path d="M115.63 21.9542L116.539 23.8684" stroke="#2F7965" stroke-miterlimit="10" stroke-linecap="round"/>
<path d="M116.539 23.8684L117.448 23.9998" stroke="#2F7965" stroke-miterlimit="10" stroke-linecap="round"/>
<path d="M117.448 23.9998L118.357 24.4006" stroke="#2F7965" stroke-miterlimit="10" stroke-linecap="round"/>
<path d="M118.357 24.4006L119.266 25.1807" stroke="#2F7965" stroke-miterlimit="10" stroke-linecap="round"/>
<path d="M119.266 25.1808L120.175 26.3919" stroke="#2F7965" stroke-miterlimit="10" stroke-linecap="round"/>
<path d="M120.175 26.392L121.083 24.4615" stroke="#2F7965" stroke-miterlimit="10" stroke-linecap="round"/>
<path d="M121.083 24.4615L121.992 30.4058" stroke="#2F7965" stroke-miterlimit="10" stroke-linecap="round"/>
<path d="M121.992 30.4057L122.901 29.8539" stroke="#2F7965" stroke-miterlimit="10" stroke-linecap="round"/>
<path d="M122.901 29.8539L123.81 28.7258" stroke="#2F7965" stroke-miterlimit="10" stroke-linecap="round"/>
<path d="M123.81 28.7259L124.719 28.0819" stroke="#2F7965" stroke-miterlimit="10" stroke-linecap="round"/>
<path d="M124.719 28.0819L125.628 28.1115" stroke="#2F7965" stroke-miterlimit="10" stroke-linecap="round"/>
<path d="M125.628 28.1115L126.537 29.911" stroke="#2F7965" stroke-miterlimit="10" stroke-linecap="round"/>
<path d="M126.537 29.9109L127.446 28.3022" stroke="#2F7965" stroke-miterlimit="10" stroke-linecap="round"/>
<path d="M127.446 28.3023L128.355 28.1912" stroke="#2F7965" stroke-miterlimit="10" stroke-linecap="round"/>
<path d="M128.355 28.1912L129.264 28.6742" stroke="#2F7965" stroke-miterlimit="10" stroke-linecap="round"/>
<path d="M129.264 28.6742L130.173 30.9376" stroke="#2F7965" stroke-miterlimit="10" stroke-linecap="round"/>
<path d="M130.173 30.9376L131.082 33.7354" stroke="#2F7965" stroke-miterlimit="10" stroke-linecap="round"/>
<path d="M131.082 33.7353L131.99 33.5778" stroke="#2F7965" stroke-miterlimit="10" stroke-linecap="round"/>
<path d="M131.99 33.5778L132.899 39.1934" stroke="#2F7965" stroke-miterlimit="10" stroke-linecap="round"/>
<path d="M132.899 39.1933L133.808 37.647" stroke="#2F7965" stroke-miterlimit="10" stroke-linecap="round"/>
<path d="M133.808 37.647L134.717 36.1536" stroke="#2F7965" stroke-miterlimit="10" stroke-linecap="round"/>
<path d="M134.717 36.1536L135.626 36.2647" stroke="#2F7965" stroke-miterlimit="10" stroke-linecap="round"/>
<path d="M135.626 36.2648L136.535 36.9645" stroke="#2F7965" stroke-miterlimit="10" stroke-linecap="round"/>
<path d="M136.535 36.9645L137.444 37.7374" stroke="#2F7965" stroke-miterlimit="10" stroke-linecap="round"/>
<path d="M137.444 37.7374L138.353 35.5118" stroke="#2F7965" stroke-miterlimit="10" stroke-linecap="round"/>
<path d="M138.353 35.5119L139.262 35.0259" stroke="#2F7965" stroke-miterlimit="10" stroke-linecap="round"/>
<path d="M139.262 35.0258L140.171 34.6808" stroke="#2F7965" stroke-miterlimit="10" stroke-linecap="round"/>
<path d="M140.171 34.6808L141.08 37.2089" stroke="#2F7965" stroke-miterlimit="10" stroke-linecap="round"/>
<path d="M141.08 37.2088L141.989 28.9458" stroke="#2F7965" stroke-miterlimit="10" stroke-linecap="round"/>
<path d="M141.989 28.9458L142.897 24.766" stroke="#2F7965" stroke-miterlimit="10" stroke-linecap="round"/>
<path d="M142.897 24.766L143.806 29.435" stroke="#2F7965" stroke-miterlimit="10" stroke-linecap="round"/>
<path d="M143.806 29.4351L144.715 30.761" stroke="#2F7965" stroke-miterlimit="10" stroke-linecap="round"/>
<path d="M144.715 30.761L145.624 30.5364" stroke="#2F7965" stroke-miterlimit="10" stroke-linecap="round"/>
<path d="M145.624 30.5364L146.533 30.8633" stroke="#2F7965" stroke-miterlimit="10" stroke-linecap="round"/>
<path d="M146.533 30.8633L147.442 33.4186" stroke="#2F7965" stroke-miterlimit="10" stroke-linecap="round"/>
<path d="M147.442 33.4187L148.351 34.3007" stroke="#2F7965" stroke-miterlimit="10" stroke-linecap="round"/>
<path d="M148.351 34.3007L149.26 38.1008" stroke="#2F7965" stroke-miterlimit="10" stroke-linecap="round"/>
<path d="M149.26 38.1008L150.169 40.9121" stroke="#2F7965" stroke-miterlimit="10" stroke-linecap="round"/>
<path d="M150.169 40.9121L151.078 40.183" stroke="#2F7965" stroke-miterlimit="10" stroke-linecap="round"/>
<path d="M151.078 40.183L151.987 37.5923" stroke="#2F7965" stroke-miterlimit="10" stroke-linecap="round"/>
<path d="M151.987 37.5923L152.895 36.9131" stroke="#2F7965" stroke-miterlimit="10" stroke-linecap="round"/>
<path d="M152.896 36.9131L153.804 37.3967" stroke="#2F7965" stroke-miterlimit="10" stroke-linecap="round"/>
<path d="M153.804 37.3968L154.713 35.9124" stroke="#2F7965" stroke-miterlimit="10" stroke-linecap="round"/>
<path d="M154.713 35.9124L155.622 37.475" stroke="#2F7965" stroke-miterlimit="10" stroke-linecap="round"/>
<path d="M155.622 37.475L156.531 36.8145" stroke="#2F7965" stroke-miterlimit="10" stroke-linecap="round"/>
<path d="M156.531 36.8145L157.44 36.8943" stroke="#2F7965" stroke-miterlimit="10" stroke-linecap="round"/>
</g>
</g>
<defs>
<clipPath id="clip0_22_1426">
<rect width="164" height="48" fill="white"/>
</clipPath>
</defs>
</svg>
