<svg width="164" height="48" viewBox="0 0 164 48" fill="none" xmlns="http://www.w3.org/2000/svg">
<g clip-path="url(#clip0_22_734)">
<mask id="mask0_22_734" style="mask-type:luminance" maskUnits="userSpaceOnUse" x="0" y="0" width="164" height="48">
<path d="M163.5 0.5V47.5H0.5V0.5H163.5Z" fill="white" stroke="white"/>
</mask>
<g mask="url(#mask0_22_734)">
<path d="M6.56006 5.80054L7.46897 7.07272" stroke="#2F7965" stroke-miterlimit="10" stroke-linecap="round"/>
<path d="M7.46899 7.07275L8.37791 8.81212" stroke="#2F7965" stroke-miterlimit="10" stroke-linecap="round"/>
<path d="M8.37793 8.81201L9.28685 9.98097" stroke="#2F7965" stroke-miterlimit="10" stroke-linecap="round"/>
<path d="M9.28687 9.98108L10.1958 11.2802" stroke="#2F7965" stroke-miterlimit="10" stroke-linecap="round"/>
<path d="M10.1957 11.2802L11.1046 13.22" stroke="#2F7965" stroke-miterlimit="10" stroke-linecap="round"/>
<path d="M11.1046 13.22L12.0135 14.789" stroke="#2F7965" stroke-miterlimit="10" stroke-linecap="round"/>
<path d="M12.0135 14.789L12.9225 14.7441" stroke="#2F7965" stroke-miterlimit="10" stroke-linecap="round"/>
<path d="M12.9225 14.7442L13.8314 13.1451" stroke="#2F7965" stroke-miterlimit="10" stroke-linecap="round"/>
<path d="M13.8314 13.1451L14.7403 11.0643" stroke="#2F7965" stroke-miterlimit="10" stroke-linecap="round"/>
<path d="M14.7404 11.0643L15.6493 12.361" stroke="#2F7965" stroke-miterlimit="10" stroke-linecap="round"/>
<path d="M15.6492 12.3611L16.5581 12.9092" stroke="#2F7965" stroke-miterlimit="10" stroke-linecap="round"/>
<path d="M16.5581 12.9092L17.467 14.6692" stroke="#2F7965" stroke-miterlimit="10" stroke-linecap="round"/>
<path d="M17.467 14.6692L18.376 15.1482" stroke="#2F7965" stroke-miterlimit="10" stroke-linecap="round"/>
<path d="M18.376 15.1481L19.2849 14.9656" stroke="#2F7965" stroke-miterlimit="10" stroke-linecap="round"/>
<path d="M19.2849 14.9656L20.1938 16.3684" stroke="#2F7965" stroke-miterlimit="10" stroke-linecap="round"/>
<path d="M20.1938 16.3684L21.1028 12.2449" stroke="#2F7965" stroke-miterlimit="10" stroke-linecap="round"/>
<path d="M21.1027 12.2449L22.0116 10.9669" stroke="#2F7965" stroke-miterlimit="10" stroke-linecap="round"/>
<path d="M22.0116 10.9669L22.9205 11.322" stroke="#2F7965" stroke-miterlimit="10" stroke-linecap="round"/>
<path d="M22.9205 11.322L23.8294 13.4848" stroke="#2F7965" stroke-miterlimit="10" stroke-linecap="round"/>
<path d="M23.8295 13.4847L24.7384 14.0025" stroke="#2F7965" stroke-miterlimit="10" stroke-linecap="round"/>
<path d="M24.7384 14.0025L25.6473 10.2468" stroke="#2F7965" stroke-miterlimit="10" stroke-linecap="round"/>
<path d="M25.6473 10.2468L26.5563 15.8223" stroke="#2F7965" stroke-miterlimit="10" stroke-linecap="round"/>
<path d="M26.5562 15.8222L27.4651 14.486" stroke="#2F7965" stroke-miterlimit="10" stroke-linecap="round"/>
<path d="M27.4651 14.486L28.374 12.9271" stroke="#2F7965" stroke-miterlimit="10" stroke-linecap="round"/>
<path d="M28.374 12.9271L29.2829 11.3595" stroke="#2F7965" stroke-miterlimit="10" stroke-linecap="round"/>
<path d="M29.283 11.3595L30.1919 11.5809" stroke="#2F7965" stroke-miterlimit="10" stroke-linecap="round"/>
<path d="M30.1919 11.5809L31.1008 10.5302" stroke="#2F7965" stroke-miterlimit="10" stroke-linecap="round"/>
<path d="M31.1008 10.5302L32.0097 14.273" stroke="#2F7965" stroke-miterlimit="10" stroke-linecap="round"/>
<path d="M32.0096 14.2729L32.9186 15.8759" stroke="#2F7965" stroke-miterlimit="10" stroke-linecap="round"/>
<path d="M32.9186 15.876L33.8275 26.6504" stroke="#2F7965" stroke-miterlimit="10" stroke-linecap="round"/>
<path d="M33.8275 26.6504L34.7364 23.5844" stroke="#2F7965" stroke-miterlimit="10" stroke-linecap="round"/>
<path d="M34.7365 23.5844L35.6454 27.2648" stroke="#2F7965" stroke-miterlimit="10" stroke-linecap="round"/>
<path d="M35.6454 27.2648L36.5543 25.9843" stroke="#2F7965" stroke-miterlimit="10" stroke-linecap="round"/>
<path d="M36.5543 25.9843L37.4632 27.6453" stroke="#2F7965" stroke-miterlimit="10" stroke-linecap="round"/>
<path d="M37.4631 27.6453L38.3721 30.3394" stroke="#2F7965" stroke-miterlimit="10" stroke-linecap="round"/>
<path d="M38.3721 30.3394L39.281 26.958" stroke="#2F7965" stroke-miterlimit="10" stroke-linecap="round"/>
<path d="M39.281 26.958L40.1899 30.0232" stroke="#2F7965" stroke-miterlimit="10" stroke-linecap="round"/>
<path d="M40.1899 30.0232L41.0989 28.1898" stroke="#2F7965" stroke-miterlimit="10" stroke-linecap="round"/>
<path d="M41.0989 28.1898L42.0078 25.2622" stroke="#2F7965" stroke-miterlimit="10" stroke-linecap="round"/>
<path d="M42.0078 25.2621L42.9167 25.0742" stroke="#2F7965" stroke-miterlimit="10" stroke-linecap="round"/>
<path d="M42.9166 25.0743L43.8255 24.1476" stroke="#2F7965" stroke-miterlimit="10" stroke-linecap="round"/>
<path d="M43.8256 24.1476L44.7345 23.0927" stroke="#2F7965" stroke-miterlimit="10" stroke-linecap="round"/>
<path d="M44.7345 23.0927L45.6434 24.6871" stroke="#2F7965" stroke-miterlimit="10" stroke-linecap="round"/>
<path d="M45.6434 24.6871L46.5523 27.0939" stroke="#2F7965" stroke-miterlimit="10" stroke-linecap="round"/>
<path d="M46.5524 27.0939L47.4613 35.1002" stroke="#2F7965" stroke-miterlimit="10" stroke-linecap="round"/>
<path d="M47.4613 35.1002L48.3702 41.4178" stroke="#2F7965" stroke-miterlimit="10" stroke-linecap="round"/>
<path d="M48.3701 41.4178L49.279 44.4812" stroke="#2F7965" stroke-miterlimit="10" stroke-linecap="round"/>
<path d="M49.2791 44.4812L50.188 45.588" stroke="#2F7965" stroke-miterlimit="10" stroke-linecap="round"/>
<path d="M50.188 45.588L51.0969 46.08" stroke="#2F7965" stroke-miterlimit="10" stroke-linecap="round"/>
<path d="M51.0969 46.0801L52.0058 41.0159" stroke="#2F7965" stroke-miterlimit="10" stroke-linecap="round"/>
<path d="M52.0059 41.0159L52.9148 42.5523" stroke="#2F7965" stroke-miterlimit="10" stroke-linecap="round"/>
<path d="M52.9148 42.5522L53.8237 39.3878" stroke="#2F7965" stroke-miterlimit="10" stroke-linecap="round"/>
<path d="M53.8237 39.3878L54.7326 43.4713" stroke="#2F7965" stroke-miterlimit="10" stroke-linecap="round"/>
<path d="M54.7325 43.4714L55.6415 35.7904" stroke="#2F7965" stroke-miterlimit="10" stroke-linecap="round"/>
<path d="M55.6415 35.7904L56.5504 37.2668" stroke="#2F7965" stroke-miterlimit="10" stroke-linecap="round"/>
<path d="M56.5504 37.2668L57.4593 37.2068" stroke="#2F7965" stroke-miterlimit="10" stroke-linecap="round"/>
<path d="M57.4594 37.2069L58.3683 36.1641" stroke="#2F7965" stroke-miterlimit="10" stroke-linecap="round"/>
<path d="M58.3683 36.1641L59.2772 36.7765" stroke="#2F7965" stroke-miterlimit="10" stroke-linecap="round"/>
<path d="M59.2772 36.7765L60.1861 33.8652" stroke="#2F7965" stroke-miterlimit="10" stroke-linecap="round"/>
<path d="M60.186 33.8652L61.095 32.1157" stroke="#2F7965" stroke-miterlimit="10" stroke-linecap="round"/>
<path d="M61.095 32.1157L62.0039 34.0711" stroke="#2F7965" stroke-miterlimit="10" stroke-linecap="round"/>
<path d="M62.0039 34.071L62.9128 36.9389" stroke="#2F7965" stroke-miterlimit="10" stroke-linecap="round"/>
<path d="M62.9128 36.939L63.8218 35.0681" stroke="#2F7965" stroke-miterlimit="10" stroke-linecap="round"/>
<path d="M63.8218 35.0681L64.7307 33.1432" stroke="#2F7965" stroke-miterlimit="10" stroke-linecap="round"/>
<path d="M64.7307 33.1432L65.6396 36.0996" stroke="#2F7965" stroke-miterlimit="10" stroke-linecap="round"/>
<path d="M65.6395 36.0996L66.5484 33.6614" stroke="#2F7965" stroke-miterlimit="10" stroke-linecap="round"/>
<path d="M66.5485 33.6614L67.4574 36.5989" stroke="#2F7965" stroke-miterlimit="10" stroke-linecap="round"/>
<path d="M67.4574 36.5988L68.3663 34.8358" stroke="#2F7965" stroke-miterlimit="10" stroke-linecap="round"/>
<path d="M68.3663 34.8359L69.2752 34.5166" stroke="#2F7965" stroke-miterlimit="10" stroke-linecap="round"/>
<path d="M69.2753 34.5166L70.1842 35.051" stroke="#2F7965" stroke-miterlimit="10" stroke-linecap="round"/>
<path d="M70.1842 35.051L71.0931 34.9401" stroke="#2F7965" stroke-miterlimit="10" stroke-linecap="round"/>
<path d="M71.093 34.94L72.0019 34.361" stroke="#2F7965" stroke-miterlimit="10" stroke-linecap="round"/>
<path d="M72.002 34.361L72.9109 34.7201" stroke="#2F7965" stroke-miterlimit="10" stroke-linecap="round"/>
<path d="M72.9109 34.7201L73.8198 33.569" stroke="#2F7965" stroke-miterlimit="10" stroke-linecap="round"/>
<path d="M73.8198 33.569L74.7287 33.6435" stroke="#2F7965" stroke-miterlimit="10" stroke-linecap="round"/>
<path d="M74.7288 33.6436L75.6377 34.5232" stroke="#2F7965" stroke-miterlimit="10" stroke-linecap="round"/>
<path d="M75.6377 34.5231L76.5466 34.0247" stroke="#2F7965" stroke-miterlimit="10" stroke-linecap="round"/>
<path d="M76.5466 34.0247L77.4555 34.2982" stroke="#2F7965" stroke-miterlimit="10" stroke-linecap="round"/>
<path d="M77.4554 34.2983L78.3644 35.664" stroke="#2F7965" stroke-miterlimit="10" stroke-linecap="round"/>
<path d="M78.3644 35.664L79.2733 34.8583" stroke="#2F7965" stroke-miterlimit="10" stroke-linecap="round"/>
<path d="M79.2733 34.8582L80.1822 34.8396" stroke="#2F7965" stroke-miterlimit="10" stroke-linecap="round"/>
<path d="M80.1823 34.8396L81.0912 33.8612" stroke="#2F7965" stroke-miterlimit="10" stroke-linecap="round"/>
<path d="M81.0912 33.8613L82.0001 33.6605" stroke="#2F7965" stroke-miterlimit="10" stroke-linecap="round"/>
<path d="M82 33.6604L82.9089 33.0345" stroke="#2F7965" stroke-miterlimit="10" stroke-linecap="round"/>
<path d="M82.9089 33.0345L83.8179 33.4514" stroke="#2F7965" stroke-miterlimit="10" stroke-linecap="round"/>
<path d="M83.8179 33.4515L84.7268 33.2195" stroke="#2F7965" stroke-miterlimit="10" stroke-linecap="round"/>
<path d="M84.7268 33.2195L85.6357 34.5568" stroke="#2F7965" stroke-miterlimit="10" stroke-linecap="round"/>
<path d="M85.6357 34.5568L86.5447 34.3502" stroke="#2F7965" stroke-miterlimit="10" stroke-linecap="round"/>
<path d="M86.5447 34.3502L87.4536 34.8262" stroke="#2F7965" stroke-miterlimit="10" stroke-linecap="round"/>
<path d="M87.4536 34.8262L88.3625 32.7146" stroke="#2F7965" stroke-miterlimit="10" stroke-linecap="round"/>
<path d="M88.3624 32.7146L89.2713 33.742" stroke="#2F7965" stroke-miterlimit="10" stroke-linecap="round"/>
<path d="M89.2714 33.7419L90.1803 34.7806" stroke="#2F7965" stroke-miterlimit="10" stroke-linecap="round"/>
<path d="M90.1803 34.7806L91.0892 35.2733" stroke="#2F7965" stroke-miterlimit="10" stroke-linecap="round"/>
<path d="M91.0892 35.2732L91.9981 35.252" stroke="#2F7965" stroke-miterlimit="10" stroke-linecap="round"/>
<path d="M91.9982 35.252L92.9071 36.7877" stroke="#2F7965" stroke-miterlimit="10" stroke-linecap="round"/>
<path d="M92.9071 36.7877L93.816 31.6288" stroke="#2F7965" stroke-miterlimit="10" stroke-linecap="round"/>
<path d="M93.8159 31.6288L94.7248 30.0321" stroke="#2F7965" stroke-miterlimit="10" stroke-linecap="round"/>
<path d="M94.7249 30.032L95.6338 30.0287" stroke="#2F7965" stroke-miterlimit="10" stroke-linecap="round"/>
<path d="M95.6338 30.0287L96.5427 31.072" stroke="#2F7965" stroke-miterlimit="10" stroke-linecap="round"/>
<path d="M96.5427 31.072L97.4516 28.334" stroke="#2F7965" stroke-miterlimit="10" stroke-linecap="round"/>
<path d="M97.4517 28.334L98.3606 26.6018" stroke="#2F7965" stroke-miterlimit="10" stroke-linecap="round"/>
<path d="M98.3606 26.6018L99.2695 26.6681" stroke="#2F7965" stroke-miterlimit="10" stroke-linecap="round"/>
<path d="M99.2694 26.6681L100.178 25.5605" stroke="#2F7965" stroke-miterlimit="10" stroke-linecap="round"/>
<path d="M100.178 25.5606L101.087 23.2578" stroke="#2F7965" stroke-miterlimit="10" stroke-linecap="round"/>
<path d="M101.087 23.2578L101.996 21.8247" stroke="#2F7965" stroke-miterlimit="10" stroke-linecap="round"/>
<path d="M101.996 21.8247L102.905 24.1889" stroke="#2F7965" stroke-miterlimit="10" stroke-linecap="round"/>
<path d="M102.905 24.1888L103.814 24.4644" stroke="#2F7965" stroke-miterlimit="10" stroke-linecap="round"/>
<path d="M103.814 24.4645L104.723 25.1084" stroke="#2F7965" stroke-miterlimit="10" stroke-linecap="round"/>
<path d="M104.723 25.1084L105.632 23.0292" stroke="#2F7965" stroke-miterlimit="10" stroke-linecap="round"/>
<path d="M105.632 23.0292L106.541 25.7423" stroke="#2F7965" stroke-miterlimit="10" stroke-linecap="round"/>
<path d="M106.541 25.7423L107.45 28.5815" stroke="#2F7965" stroke-miterlimit="10" stroke-linecap="round"/>
<path d="M107.45 28.5815L108.359 28.3827" stroke="#2F7965" stroke-miterlimit="10" stroke-linecap="round"/>
<path d="M108.359 28.3826L109.268 24.925" stroke="#2F7965" stroke-miterlimit="10" stroke-linecap="round"/>
<path d="M109.268 24.9251L110.176 17.8834" stroke="#2F7965" stroke-miterlimit="10" stroke-linecap="round"/>
<path d="M110.176 17.8834L111.085 16.6841" stroke="#2F7965" stroke-miterlimit="10" stroke-linecap="round"/>
<path d="M111.085 16.6841L111.994 13.9196" stroke="#2F7965" stroke-miterlimit="10" stroke-linecap="round"/>
<path d="M111.994 13.9196L112.903 12.0953" stroke="#2F7965" stroke-miterlimit="10" stroke-linecap="round"/>
<path d="M112.903 12.0953L113.812 12.7827" stroke="#2F7965" stroke-miterlimit="10" stroke-linecap="round"/>
<path d="M113.812 12.7827L114.721 13.0437" stroke="#2F7965" stroke-miterlimit="10" stroke-linecap="round"/>
<path d="M114.721 13.0437L115.63 14.1134" stroke="#2F7965" stroke-miterlimit="10" stroke-linecap="round"/>
<path d="M115.63 14.1135L116.539 14.9761" stroke="#2F7965" stroke-miterlimit="10" stroke-linecap="round"/>
<path d="M116.539 14.976L117.448 13.7931" stroke="#2F7965" stroke-miterlimit="10" stroke-linecap="round"/>
<path d="M117.448 13.7931L118.357 14.4771" stroke="#2F7965" stroke-miterlimit="10" stroke-linecap="round"/>
<path d="M118.357 14.477L119.266 12.859" stroke="#2F7965" stroke-miterlimit="10" stroke-linecap="round"/>
<path d="M119.266 12.8591L120.175 12.3225" stroke="#2F7965" stroke-miterlimit="10" stroke-linecap="round"/>
<path d="M120.175 12.3225L121.083 12.3314" stroke="#2F7965" stroke-miterlimit="10" stroke-linecap="round"/>
<path d="M121.083 12.3314L121.992 15.2112" stroke="#2F7965" stroke-miterlimit="10" stroke-linecap="round"/>
<path d="M121.992 15.2112L122.901 17.4062" stroke="#2F7965" stroke-miterlimit="10" stroke-linecap="round"/>
<path d="M122.901 17.4062L123.81 14.1183" stroke="#2F7965" stroke-miterlimit="10" stroke-linecap="round"/>
<path d="M123.81 14.1183L124.719 14.4803" stroke="#2F7965" stroke-miterlimit="10" stroke-linecap="round"/>
<path d="M124.719 14.4803L125.628 13.6749" stroke="#2F7965" stroke-miterlimit="10" stroke-linecap="round"/>
<path d="M125.628 13.6749L126.537 16.0687" stroke="#2F7965" stroke-miterlimit="10" stroke-linecap="round"/>
<path d="M126.537 16.0687L127.446 14.6821" stroke="#2F7965" stroke-miterlimit="10" stroke-linecap="round"/>
<path d="M127.446 14.6821L128.355 15.9546" stroke="#2F7965" stroke-miterlimit="10" stroke-linecap="round"/>
<path d="M128.355 15.9546L129.264 16.3225" stroke="#2F7965" stroke-miterlimit="10" stroke-linecap="round"/>
<path d="M129.264 16.3225L130.173 19.7246" stroke="#2F7965" stroke-miterlimit="10" stroke-linecap="round"/>
<path d="M130.173 19.7246L131.082 21.3771" stroke="#2F7965" stroke-miterlimit="10" stroke-linecap="round"/>
<path d="M131.082 21.3771L131.99 22.9997" stroke="#2F7965" stroke-miterlimit="10" stroke-linecap="round"/>
<path d="M131.99 22.9996L132.899 29.9867" stroke="#2F7965" stroke-miterlimit="10" stroke-linecap="round"/>
<path d="M132.899 29.9867L133.808 31.29" stroke="#2F7965" stroke-miterlimit="10" stroke-linecap="round"/>
<path d="M133.808 31.29L134.717 29.2861" stroke="#2F7965" stroke-miterlimit="10" stroke-linecap="round"/>
<path d="M134.717 29.2861L135.626 28.5433" stroke="#2F7965" stroke-miterlimit="10" stroke-linecap="round"/>
<path d="M135.626 28.5433L136.535 30.2527" stroke="#2F7965" stroke-miterlimit="10" stroke-linecap="round"/>
<path d="M136.535 30.2527L137.444 30.3048" stroke="#2F7965" stroke-miterlimit="10" stroke-linecap="round"/>
<path d="M137.444 30.3049L138.353 26.1948" stroke="#2F7965" stroke-miterlimit="10" stroke-linecap="round"/>
<path d="M138.353 26.1948L139.262 26.0618" stroke="#2F7965" stroke-miterlimit="10" stroke-linecap="round"/>
<path d="M139.262 26.0618L140.171 24.4958" stroke="#2F7965" stroke-miterlimit="10" stroke-linecap="round"/>
<path d="M140.171 24.4958L141.08 27.1967" stroke="#2F7965" stroke-miterlimit="10" stroke-linecap="round"/>
<path d="M141.08 27.1966L141.989 8.39893" stroke="#2F7965" stroke-miterlimit="10" stroke-linecap="round"/>
<path d="M141.989 8.39894L142.897 1.92004" stroke="#2F7965" stroke-miterlimit="10" stroke-linecap="round"/>
<path d="M142.897 1.92004L143.806 4.55283" stroke="#2F7965" stroke-miterlimit="10" stroke-linecap="round"/>
<path d="M143.806 4.55286L144.715 8.37709" stroke="#2F7965" stroke-miterlimit="10" stroke-linecap="round"/>
<path d="M144.715 8.37708L145.624 8.60031" stroke="#2F7965" stroke-miterlimit="10" stroke-linecap="round"/>
<path d="M145.624 8.60034L146.533 9.17745" stroke="#2F7965" stroke-miterlimit="10" stroke-linecap="round"/>
<path d="M146.533 9.17737L147.442 13.8935" stroke="#2F7965" stroke-miterlimit="10" stroke-linecap="round"/>
<path d="M147.442 13.8936L148.351 14.1817" stroke="#2F7965" stroke-miterlimit="10" stroke-linecap="round"/>
<path d="M148.351 14.1816L149.26 23.6914" stroke="#2F7965" stroke-miterlimit="10" stroke-linecap="round"/>
<path d="M149.26 23.6914L150.169 26.7088" stroke="#2F7965" stroke-miterlimit="10" stroke-linecap="round"/>
<path d="M150.169 26.7089L151.078 28.5185" stroke="#2F7965" stroke-miterlimit="10" stroke-linecap="round"/>
<path d="M151.078 28.5184L151.987 26.9757" stroke="#2F7965" stroke-miterlimit="10" stroke-linecap="round"/>
<path d="M151.987 26.9757L152.895 27.3667" stroke="#2F7965" stroke-miterlimit="10" stroke-linecap="round"/>
<path d="M152.896 27.3668L153.804 27.8493" stroke="#2F7965" stroke-miterlimit="10" stroke-linecap="round"/>
<path d="M153.804 27.8493L154.713 25.7791" stroke="#2F7965" stroke-miterlimit="10" stroke-linecap="round"/>
<path d="M154.713 25.7791L155.622 27.9974" stroke="#2F7965" stroke-miterlimit="10" stroke-linecap="round"/>
<path d="M155.622 27.9974L156.531 28.8412" stroke="#2F7965" stroke-miterlimit="10" stroke-linecap="round"/>
<path d="M156.531 28.8412L157.44 27.3651" stroke="#2F7965" stroke-miterlimit="10" stroke-linecap="round"/>
</g>
</g>
<defs>
<clipPath id="clip0_22_734">
<rect width="164" height="48" fill="white"/>
</clipPath>
</defs>
</svg>
