<svg width="164" height="48" viewBox="0 0 164 48" fill="none" xmlns="http://www.w3.org/2000/svg">
<g clip-path="url(#clip0_22_1080)">
<mask id="mask0_22_1080" style="mask-type:luminance" maskUnits="userSpaceOnUse" x="0" y="0" width="164" height="48">
<path d="M164 0H0V48H164V0Z" fill="white"/>
</mask>
<g mask="url(#mask0_22_1080)">
<path d="M6.56006 1.92004L7.46897 4.6314" stroke="#2F7965" stroke-miterlimit="10" stroke-linecap="round"/>
<path d="M7.46899 4.63135L8.37791 6.35703" stroke="#2F7965" stroke-miterlimit="10" stroke-linecap="round"/>
<path d="M8.37793 6.35706L9.28685 12.7648" stroke="#2F7965" stroke-miterlimit="10" stroke-linecap="round"/>
<path d="M9.28687 12.7648L10.1958 12.4797" stroke="#2F7965" stroke-miterlimit="10" stroke-linecap="round"/>
<path d="M10.1957 12.4797L11.1046 15.9398" stroke="#2F7965" stroke-miterlimit="10" stroke-linecap="round"/>
<path d="M11.1046 15.9398L12.0135 18.2126" stroke="#2F7965" stroke-miterlimit="10" stroke-linecap="round"/>
<path d="M12.0135 18.2126L12.9225 16.4851" stroke="#2F7965" stroke-miterlimit="10" stroke-linecap="round"/>
<path d="M12.9225 16.4851L13.8314 15.5526" stroke="#2F7965" stroke-miterlimit="10" stroke-linecap="round"/>
<path d="M13.8314 15.5526L14.7403 13.9335" stroke="#2F7965" stroke-miterlimit="10" stroke-linecap="round"/>
<path d="M14.7404 13.9335L15.6493 16.9586" stroke="#2F7965" stroke-miterlimit="10" stroke-linecap="round"/>
<path d="M15.6492 16.9586L16.5581 17.8548" stroke="#2F7965" stroke-miterlimit="10" stroke-linecap="round"/>
<path d="M16.5581 17.8547L17.467 19.0811" stroke="#2F7965" stroke-miterlimit="10" stroke-linecap="round"/>
<path d="M17.467 19.0811L18.376 18.6676" stroke="#2F7965" stroke-miterlimit="10" stroke-linecap="round"/>
<path d="M18.376 18.6676L19.2849 16.1133" stroke="#2F7965" stroke-miterlimit="10" stroke-linecap="round"/>
<path d="M19.2849 16.1133L20.1938 17.3933" stroke="#2F7965" stroke-miterlimit="10" stroke-linecap="round"/>
<path d="M20.1938 17.3934L21.1028 15.0032" stroke="#2F7965" stroke-miterlimit="10" stroke-linecap="round"/>
<path d="M21.1027 15.0031L22.0116 14.8126" stroke="#2F7965" stroke-miterlimit="10" stroke-linecap="round"/>
<path d="M22.0116 14.8126L22.9205 15.7952" stroke="#2F7965" stroke-miterlimit="10" stroke-linecap="round"/>
<path d="M22.9205 15.7952L23.8294 16.0236" stroke="#2F7965" stroke-miterlimit="10" stroke-linecap="round"/>
<path d="M23.8295 16.0236L24.7384 15.6125" stroke="#2F7965" stroke-miterlimit="10" stroke-linecap="round"/>
<path d="M24.7384 15.6125L25.6473 12.0472" stroke="#2F7965" stroke-miterlimit="10" stroke-linecap="round"/>
<path d="M25.6473 12.0472L26.5563 13.3241" stroke="#2F7965" stroke-miterlimit="10" stroke-linecap="round"/>
<path d="M26.5562 13.3241L27.4651 14.402" stroke="#2F7965" stroke-miterlimit="10" stroke-linecap="round"/>
<path d="M27.4651 14.402L28.374 10.152" stroke="#2F7965" stroke-miterlimit="10" stroke-linecap="round"/>
<path d="M28.374 10.152L29.2829 9.61011" stroke="#2F7965" stroke-miterlimit="10" stroke-linecap="round"/>
<path d="M29.283 9.61018L30.1919 8.41675" stroke="#2F7965" stroke-miterlimit="10" stroke-linecap="round"/>
<path d="M30.1919 8.41668L31.1008 6.86646" stroke="#2F7965" stroke-miterlimit="10" stroke-linecap="round"/>
<path d="M31.1008 6.86646L32.0097 7.83507" stroke="#2F7965" stroke-miterlimit="10" stroke-linecap="round"/>
<path d="M32.0096 7.83507L32.9186 7.13354" stroke="#2F7965" stroke-miterlimit="10" stroke-linecap="round"/>
<path d="M32.9186 7.13354L33.8275 17.1858" stroke="#2F7965" stroke-miterlimit="10" stroke-linecap="round"/>
<path d="M33.8275 17.1858L34.7364 12.9489" stroke="#2F7965" stroke-miterlimit="10" stroke-linecap="round"/>
<path d="M34.7365 12.9489L35.6454 17.0124" stroke="#2F7965" stroke-miterlimit="10" stroke-linecap="round"/>
<path d="M35.6454 17.0125L36.5543 18.5324" stroke="#2F7965" stroke-miterlimit="10" stroke-linecap="round"/>
<path d="M36.5543 18.5325L37.4632 21.087" stroke="#2F7965" stroke-miterlimit="10" stroke-linecap="round"/>
<path d="M37.4631 21.0869L38.3721 25.6588" stroke="#2F7965" stroke-miterlimit="10" stroke-linecap="round"/>
<path d="M38.3721 25.6588L39.281 21.8297" stroke="#2F7965" stroke-miterlimit="10" stroke-linecap="round"/>
<path d="M39.281 21.8297L40.1899 24.9369" stroke="#2F7965" stroke-miterlimit="10" stroke-linecap="round"/>
<path d="M40.1899 24.937L41.0989 22.748" stroke="#2F7965" stroke-miterlimit="10" stroke-linecap="round"/>
<path d="M41.0989 22.748L42.0078 20.6511" stroke="#2F7965" stroke-miterlimit="10" stroke-linecap="round"/>
<path d="M42.0078 20.6511L42.9167 21.3004" stroke="#2F7965" stroke-miterlimit="10" stroke-linecap="round"/>
<path d="M42.9166 21.3005L43.8255 19.9755" stroke="#2F7965" stroke-miterlimit="10" stroke-linecap="round"/>
<path d="M43.8256 19.9755L44.7345 20.3803" stroke="#2F7965" stroke-miterlimit="10" stroke-linecap="round"/>
<path d="M44.7345 20.3802L45.6434 22.0821" stroke="#2F7965" stroke-miterlimit="10" stroke-linecap="round"/>
<path d="M45.6434 22.082L46.5523 25.4286" stroke="#2F7965" stroke-miterlimit="10" stroke-linecap="round"/>
<path d="M46.5524 25.4287L47.4613 33.2059" stroke="#2F7965" stroke-miterlimit="10" stroke-linecap="round"/>
<path d="M47.4613 33.2058L48.3702 41.5844" stroke="#2F7965" stroke-miterlimit="10" stroke-linecap="round"/>
<path d="M48.3701 41.5845L49.279 46.0801" stroke="#2F7965" stroke-miterlimit="10" stroke-linecap="round"/>
<path d="M49.2791 46.0801L50.188 38.3134" stroke="#2F7965" stroke-miterlimit="10" stroke-linecap="round"/>
<path d="M50.188 38.3134L51.0969 40.3573" stroke="#2F7965" stroke-miterlimit="10" stroke-linecap="round"/>
<path d="M51.0969 40.3573L52.0058 32.2615" stroke="#2F7965" stroke-miterlimit="10" stroke-linecap="round"/>
<path d="M52.0059 32.2615L52.9148 32.0298" stroke="#2F7965" stroke-miterlimit="10" stroke-linecap="round"/>
<path d="M52.9148 32.0297L53.8237 28.6279" stroke="#2F7965" stroke-miterlimit="10" stroke-linecap="round"/>
<path d="M53.8237 28.6279L54.7326 32.2793" stroke="#2F7965" stroke-miterlimit="10" stroke-linecap="round"/>
<path d="M54.7325 32.2794L55.6415 29.5541" stroke="#2F7965" stroke-miterlimit="10" stroke-linecap="round"/>
<path d="M55.6415 29.5541L56.5504 31.9105" stroke="#2F7965" stroke-miterlimit="10" stroke-linecap="round"/>
<path d="M56.5504 31.9104L57.4593 31.3595" stroke="#2F7965" stroke-miterlimit="10" stroke-linecap="round"/>
<path d="M57.4594 31.3595L58.3683 31.9412" stroke="#2F7965" stroke-miterlimit="10" stroke-linecap="round"/>
<path d="M58.3683 31.9412L59.2772 31.2667" stroke="#2F7965" stroke-miterlimit="10" stroke-linecap="round"/>
<path d="M59.2772 31.2668L60.1861 28.371" stroke="#2F7965" stroke-miterlimit="10" stroke-linecap="round"/>
<path d="M60.186 28.3709L61.095 27.8975" stroke="#2F7965" stroke-miterlimit="10" stroke-linecap="round"/>
<path d="M61.095 27.8975L62.0039 29.4641" stroke="#2F7965" stroke-miterlimit="10" stroke-linecap="round"/>
<path d="M62.0039 29.4641L62.9128 31.452" stroke="#2F7965" stroke-miterlimit="10" stroke-linecap="round"/>
<path d="M62.9128 31.452L63.8218 31.2975" stroke="#2F7965" stroke-miterlimit="10" stroke-linecap="round"/>
<path d="M63.8218 31.2975L64.7307 29.4126" stroke="#2F7965" stroke-miterlimit="10" stroke-linecap="round"/>
<path d="M64.7307 29.4126L65.6396 31.5248" stroke="#2F7965" stroke-miterlimit="10" stroke-linecap="round"/>
<path d="M65.6395 31.5248L66.5484 29.9435" stroke="#2F7965" stroke-miterlimit="10" stroke-linecap="round"/>
<path d="M66.5485 29.9435L67.4574 32.4543" stroke="#2F7965" stroke-miterlimit="10" stroke-linecap="round"/>
<path d="M67.4574 32.4543L68.3663 30.9994" stroke="#2F7965" stroke-miterlimit="10" stroke-linecap="round"/>
<path d="M68.3663 30.9994L69.2752 30.1454" stroke="#2F7965" stroke-miterlimit="10" stroke-linecap="round"/>
<path d="M69.2753 30.1453L70.1842 28.0879" stroke="#2F7965" stroke-miterlimit="10" stroke-linecap="round"/>
<path d="M70.1842 28.0879L71.0931 28.2232" stroke="#2F7965" stroke-miterlimit="10" stroke-linecap="round"/>
<path d="M71.093 28.2233L72.0019 26.0637" stroke="#2F7965" stroke-miterlimit="10" stroke-linecap="round"/>
<path d="M72.002 26.0637L72.9109 25.9261" stroke="#2F7965" stroke-miterlimit="10" stroke-linecap="round"/>
<path d="M72.9109 25.9261L73.8198 25.8651" stroke="#2F7965" stroke-miterlimit="10" stroke-linecap="round"/>
<path d="M73.8198 25.8651L74.7287 25.9286" stroke="#2F7965" stroke-miterlimit="10" stroke-linecap="round"/>
<path d="M74.7288 25.9286L75.6377 26.6966" stroke="#2F7965" stroke-miterlimit="10" stroke-linecap="round"/>
<path d="M75.6377 26.6965L76.5466 28.2852" stroke="#2F7965" stroke-miterlimit="10" stroke-linecap="round"/>
<path d="M76.5466 28.2853L77.4555 28.0524" stroke="#2F7965" stroke-miterlimit="10" stroke-linecap="round"/>
<path d="M77.4554 28.0524L78.3644 30.4872" stroke="#2F7965" stroke-miterlimit="10" stroke-linecap="round"/>
<path d="M78.3644 30.4873L79.2733 26.8962" stroke="#2F7965" stroke-miterlimit="10" stroke-linecap="round"/>
<path d="M79.2733 26.8962L80.1822 27.7841" stroke="#2F7965" stroke-miterlimit="10" stroke-linecap="round"/>
<path d="M80.1823 27.784L81.0912 26.7303" stroke="#2F7965" stroke-miterlimit="10" stroke-linecap="round"/>
<path d="M81.0912 26.7303L82.0001 25.9338" stroke="#2F7965" stroke-miterlimit="10" stroke-linecap="round"/>
<path d="M82 25.9339L82.9089 25.6511" stroke="#2F7965" stroke-miterlimit="10" stroke-linecap="round"/>
<path d="M82.9089 25.6511L83.8179 26.2894" stroke="#2F7965" stroke-miterlimit="10" stroke-linecap="round"/>
<path d="M83.8179 26.2893L84.7268 26.3013" stroke="#2F7965" stroke-miterlimit="10" stroke-linecap="round"/>
<path d="M84.7268 26.3013L85.6357 27.8343" stroke="#2F7965" stroke-miterlimit="10" stroke-linecap="round"/>
<path d="M85.6357 27.8343L86.5447 27.6608" stroke="#2F7965" stroke-miterlimit="10" stroke-linecap="round"/>
<path d="M86.5447 27.6608L87.4536 28.2491" stroke="#2F7965" stroke-miterlimit="10" stroke-linecap="round"/>
<path d="M87.4536 28.2491L88.3625 25.58" stroke="#2F7965" stroke-miterlimit="10" stroke-linecap="round"/>
<path d="M88.3624 25.58L89.2713 26.8087" stroke="#2F7965" stroke-miterlimit="10" stroke-linecap="round"/>
<path d="M89.2714 26.8087L90.1803 27.5238" stroke="#2F7965" stroke-miterlimit="10" stroke-linecap="round"/>
<path d="M90.1803 27.5238L91.0892 28.0089" stroke="#2F7965" stroke-miterlimit="10" stroke-linecap="round"/>
<path d="M91.0892 28.0089L91.9981 27.1602" stroke="#2F7965" stroke-miterlimit="10" stroke-linecap="round"/>
<path d="M91.9982 27.1602L92.9071 28.9171" stroke="#2F7965" stroke-miterlimit="10" stroke-linecap="round"/>
<path d="M92.9071 28.9171L93.816 24.6418" stroke="#2F7965" stroke-miterlimit="10" stroke-linecap="round"/>
<path d="M93.8159 24.6418L94.7248 21.2828" stroke="#2F7965" stroke-miterlimit="10" stroke-linecap="round"/>
<path d="M94.7249 21.2829L95.6338 20.8829" stroke="#2F7965" stroke-miterlimit="10" stroke-linecap="round"/>
<path d="M95.6338 20.8829L96.5427 20.1871" stroke="#2F7965" stroke-miterlimit="10" stroke-linecap="round"/>
<path d="M96.5427 20.1871L97.4516 15.1339" stroke="#2F7965" stroke-miterlimit="10" stroke-linecap="round"/>
<path d="M97.4517 15.1339L98.3606 14.1294" stroke="#2F7965" stroke-miterlimit="10" stroke-linecap="round"/>
<path d="M98.3606 14.1294L99.2695 14.1483" stroke="#2F7965" stroke-miterlimit="10" stroke-linecap="round"/>
<path d="M99.2694 14.1483L100.178 14.509" stroke="#2F7965" stroke-miterlimit="10" stroke-linecap="round"/>
<path d="M100.178 14.509L101.087 15.3524" stroke="#2F7965" stroke-miterlimit="10" stroke-linecap="round"/>
<path d="M101.087 15.3523L101.996 15.239" stroke="#2F7965" stroke-miterlimit="10" stroke-linecap="round"/>
<path d="M101.996 15.2391L102.905 14.8464" stroke="#2F7965" stroke-miterlimit="10" stroke-linecap="round"/>
<path d="M102.905 14.8464L103.814 13.9961" stroke="#2F7965" stroke-miterlimit="10" stroke-linecap="round"/>
<path d="M103.814 13.9961L104.723 15.7047" stroke="#2F7965" stroke-miterlimit="10" stroke-linecap="round"/>
<path d="M104.723 15.7046L105.632 14.8433" stroke="#2F7965" stroke-miterlimit="10" stroke-linecap="round"/>
<path d="M105.632 14.8433L106.541 17.6423" stroke="#2F7965" stroke-miterlimit="10" stroke-linecap="round"/>
<path d="M106.541 17.6423L107.45 19.9926" stroke="#2F7965" stroke-miterlimit="10" stroke-linecap="round"/>
<path d="M107.45 19.9927L108.359 20.8234" stroke="#2F7965" stroke-miterlimit="10" stroke-linecap="round"/>
<path d="M108.359 20.8234L109.268 18.9845" stroke="#2F7965" stroke-miterlimit="10" stroke-linecap="round"/>
<path d="M109.268 18.9845L110.176 12.541" stroke="#2F7965" stroke-miterlimit="10" stroke-linecap="round"/>
<path d="M110.176 12.541L111.085 11.788" stroke="#2F7965" stroke-miterlimit="10" stroke-linecap="round"/>
<path d="M111.085 11.788L111.994 10.4645" stroke="#2F7965" stroke-miterlimit="10" stroke-linecap="round"/>
<path d="M111.994 10.4645L112.903 5.35522" stroke="#2F7965" stroke-miterlimit="10" stroke-linecap="round"/>
<path d="M112.903 5.35522L113.812 6.35153" stroke="#2F7965" stroke-miterlimit="10" stroke-linecap="round"/>
<path d="M113.812 6.35156L114.721 8.88433" stroke="#2F7965" stroke-miterlimit="10" stroke-linecap="round"/>
<path d="M114.721 8.88434L115.63 7.73755" stroke="#2F7965" stroke-miterlimit="10" stroke-linecap="round"/>
<path d="M115.63 7.73755L116.539 8.49301" stroke="#2F7965" stroke-miterlimit="10" stroke-linecap="round"/>
<path d="M116.539 8.49292L117.448 10.3171" stroke="#2F7965" stroke-miterlimit="10" stroke-linecap="round"/>
<path d="M117.448 10.3171L118.357 10.8694" stroke="#2F7965" stroke-miterlimit="10" stroke-linecap="round"/>
<path d="M118.357 10.8695L119.266 10.2418" stroke="#2F7965" stroke-miterlimit="10" stroke-linecap="round"/>
<path d="M119.266 10.2418L120.175 11.3718" stroke="#2F7965" stroke-miterlimit="10" stroke-linecap="round"/>
<path d="M120.175 11.3717L121.083 12.449" stroke="#2F7965" stroke-miterlimit="10" stroke-linecap="round"/>
<path d="M121.083 12.449L121.992 15.4034" stroke="#2F7965" stroke-miterlimit="10" stroke-linecap="round"/>
<path d="M121.992 15.4034L122.901 15.8067" stroke="#2F7965" stroke-miterlimit="10" stroke-linecap="round"/>
<path d="M122.901 15.8067L123.81 14.1411" stroke="#2F7965" stroke-miterlimit="10" stroke-linecap="round"/>
<path d="M123.81 14.1411L124.719 12.3611" stroke="#2F7965" stroke-miterlimit="10" stroke-linecap="round"/>
<path d="M124.719 12.3611L125.628 12.1312" stroke="#2F7965" stroke-miterlimit="10" stroke-linecap="round"/>
<path d="M125.628 12.1312L126.537 13.4958" stroke="#2F7965" stroke-miterlimit="10" stroke-linecap="round"/>
<path d="M126.537 13.4958L127.446 12.5802" stroke="#2F7965" stroke-miterlimit="10" stroke-linecap="round"/>
<path d="M127.446 12.5802L128.355 13.532" stroke="#2F7965" stroke-miterlimit="10" stroke-linecap="round"/>
<path d="M128.355 13.5321L129.264 13.1304" stroke="#2F7965" stroke-miterlimit="10" stroke-linecap="round"/>
<path d="M129.264 13.1304L130.173 13.3579" stroke="#2F7965" stroke-miterlimit="10" stroke-linecap="round"/>
<path d="M130.173 13.3578L131.082 14.6111" stroke="#2F7965" stroke-miterlimit="10" stroke-linecap="round"/>
<path d="M131.082 14.6112L131.99 15.7491" stroke="#2F7965" stroke-miterlimit="10" stroke-linecap="round"/>
<path d="M131.99 15.749L132.899 19.754" stroke="#2F7965" stroke-miterlimit="10" stroke-linecap="round"/>
<path d="M132.899 19.754L133.808 20.7943" stroke="#2F7965" stroke-miterlimit="10" stroke-linecap="round"/>
<path d="M133.808 20.7943L134.717 19.9437" stroke="#2F7965" stroke-miterlimit="10" stroke-linecap="round"/>
<path d="M134.717 19.9437L135.626 18.3671" stroke="#2F7965" stroke-miterlimit="10" stroke-linecap="round"/>
<path d="M135.626 18.3671L136.535 19.3582" stroke="#2F7965" stroke-miterlimit="10" stroke-linecap="round"/>
<path d="M136.535 19.3583L137.444 20.7932" stroke="#2F7965" stroke-miterlimit="10" stroke-linecap="round"/>
<path d="M137.444 20.7932L138.353 18.4536" stroke="#2F7965" stroke-miterlimit="10" stroke-linecap="round"/>
<path d="M138.353 18.4535L139.262 17.2368" stroke="#2F7965" stroke-miterlimit="10" stroke-linecap="round"/>
<path d="M139.262 17.2368L140.171 15.4496" stroke="#2F7965" stroke-miterlimit="10" stroke-linecap="round"/>
<path d="M140.171 15.4496L141.08 15.0266" stroke="#2F7965" stroke-miterlimit="10" stroke-linecap="round"/>
<path d="M141.08 15.0266L141.989 5.70056" stroke="#2F7965" stroke-miterlimit="10" stroke-linecap="round"/>
<path d="M141.989 5.70055L142.897 3.21375" stroke="#2F7965" stroke-miterlimit="10" stroke-linecap="round"/>
<path d="M142.897 3.21375L143.806 11.0886" stroke="#2F7965" stroke-miterlimit="10" stroke-linecap="round"/>
<path d="M143.806 11.0886L144.715 12.1716" stroke="#2F7965" stroke-miterlimit="10" stroke-linecap="round"/>
<path d="M144.715 12.1715L145.624 12.5749" stroke="#2F7965" stroke-miterlimit="10" stroke-linecap="round"/>
<path d="M145.624 12.575L146.533 13.723" stroke="#2F7965" stroke-miterlimit="10" stroke-linecap="round"/>
<path d="M146.533 13.723L147.442 17.5278" stroke="#2F7965" stroke-miterlimit="10" stroke-linecap="round"/>
<path d="M147.442 17.5278L148.351 20.7137" stroke="#2F7965" stroke-miterlimit="10" stroke-linecap="round"/>
<path d="M148.351 20.7136L149.26 26.0044" stroke="#2F7965" stroke-miterlimit="10" stroke-linecap="round"/>
<path d="M149.26 26.0044L150.169 28.8803" stroke="#2F7965" stroke-miterlimit="10" stroke-linecap="round"/>
<path d="M150.169 28.8803L151.078 28.8657" stroke="#2F7965" stroke-miterlimit="10" stroke-linecap="round"/>
<path d="M151.078 28.8658L151.987 26.9813" stroke="#2F7965" stroke-miterlimit="10" stroke-linecap="round"/>
<path d="M151.987 26.9813L152.895 27.3081" stroke="#2F7965" stroke-miterlimit="10" stroke-linecap="round"/>
<path d="M152.896 27.3081L153.804 26.5831" stroke="#2F7965" stroke-miterlimit="10" stroke-linecap="round"/>
<path d="M153.804 26.5831L154.713 25.9753" stroke="#2F7965" stroke-miterlimit="10" stroke-linecap="round"/>
<path d="M154.713 25.9753L155.622 26.8014" stroke="#2F7965" stroke-miterlimit="10" stroke-linecap="round"/>
<path d="M155.622 26.8014L156.531 27.4197" stroke="#2F7965" stroke-miterlimit="10" stroke-linecap="round"/>
<path d="M156.531 27.4198L157.44 27.0718" stroke="#2F7965" stroke-miterlimit="10" stroke-linecap="round"/>
</g>
</g>
<defs>
<clipPath id="clip0_22_1080">
<rect width="164" height="48" fill="white"/>
</clipPath>
</defs>
</svg>
