<svg width="164" height="48" viewBox="0 0 164 48" fill="none" xmlns="http://www.w3.org/2000/svg">
<g clip-path="url(#clip0_22_907)">
<mask id="mask0_22_907" style="mask-type:luminance" maskUnits="userSpaceOnUse" x="0" y="0" width="164" height="48">
<path d="M164 0H0V48H164V0Z" fill="white"/>
</mask>
<g mask="url(#mask0_22_907)">
<path d="M6.56006 6.98279L7.46897 7.21703" stroke="#2F7965" stroke-miterlimit="10" stroke-linecap="round"/>
<path d="M7.46899 7.21704L8.37791 7.84682" stroke="#2F7965" stroke-miterlimit="10" stroke-linecap="round"/>
<path d="M8.37793 7.84686L9.28685 6.88367" stroke="#2F7965" stroke-miterlimit="10" stroke-linecap="round"/>
<path d="M9.28687 6.88367L10.1958 9.8458" stroke="#2F7965" stroke-miterlimit="10" stroke-linecap="round"/>
<path d="M10.1958 9.8457L11.1047 12.3278" stroke="#2F7965" stroke-miterlimit="10" stroke-linecap="round"/>
<path d="M11.1047 12.3279L12.0137 16.3388" stroke="#2F7965" stroke-miterlimit="10" stroke-linecap="round"/>
<path d="M12.0137 16.3388L12.9226 14.9958" stroke="#2F7965" stroke-miterlimit="10" stroke-linecap="round"/>
<path d="M12.9224 14.9958L13.8313 16.4652" stroke="#2F7965" stroke-miterlimit="10" stroke-linecap="round"/>
<path d="M13.8313 16.4652L14.7402 15.2682" stroke="#2F7965" stroke-miterlimit="10" stroke-linecap="round"/>
<path d="M14.7402 15.2682L15.6491 19.7607" stroke="#2F7965" stroke-miterlimit="10" stroke-linecap="round"/>
<path d="M15.6492 19.7607L16.5581 20.2509" stroke="#2F7965" stroke-miterlimit="10" stroke-linecap="round"/>
<path d="M16.5581 20.2509L17.467 21.2359" stroke="#2F7965" stroke-miterlimit="10" stroke-linecap="round"/>
<path d="M17.467 21.236L18.376 20.1163" stroke="#2F7965" stroke-miterlimit="10" stroke-linecap="round"/>
<path d="M18.376 20.1164L19.2849 19.1682" stroke="#2F7965" stroke-miterlimit="10" stroke-linecap="round"/>
<path d="M19.2849 19.1682L20.1938 19.6096" stroke="#2F7965" stroke-miterlimit="10" stroke-linecap="round"/>
<path d="M20.1938 19.6095L21.1028 17.6008" stroke="#2F7965" stroke-miterlimit="10" stroke-linecap="round"/>
<path d="M21.1028 17.6008L22.0117 17.3733" stroke="#2F7965" stroke-miterlimit="10" stroke-linecap="round"/>
<path d="M22.0117 17.3733L22.9206 17.9542" stroke="#2F7965" stroke-miterlimit="10" stroke-linecap="round"/>
<path d="M22.9207 17.9542L23.8296 18.6901" stroke="#2F7965" stroke-miterlimit="10" stroke-linecap="round"/>
<path d="M23.8293 18.6901L24.7383 19.9729" stroke="#2F7965" stroke-miterlimit="10" stroke-linecap="round"/>
<path d="M24.7383 19.973L25.6472 16.926" stroke="#2F7965" stroke-miterlimit="10" stroke-linecap="round"/>
<path d="M25.6472 16.926L26.5561 19.2662" stroke="#2F7965" stroke-miterlimit="10" stroke-linecap="round"/>
<path d="M26.5562 19.2661L27.4651 21.5086" stroke="#2F7965" stroke-miterlimit="10" stroke-linecap="round"/>
<path d="M27.4651 21.5086L28.374 17.6404" stroke="#2F7965" stroke-miterlimit="10" stroke-linecap="round"/>
<path d="M28.374 17.6404L29.2829 13.9915" stroke="#2F7965" stroke-miterlimit="10" stroke-linecap="round"/>
<path d="M29.283 13.9915L30.1919 13.4355" stroke="#2F7965" stroke-miterlimit="10" stroke-linecap="round"/>
<path d="M30.1919 13.4355L31.1008 13.0609" stroke="#2F7965" stroke-miterlimit="10" stroke-linecap="round"/>
<path d="M31.1008 13.0609L32.0097 15.4866" stroke="#2F7965" stroke-miterlimit="10" stroke-linecap="round"/>
<path d="M32.0098 15.4866L32.9187 19.5846" stroke="#2F7965" stroke-miterlimit="10" stroke-linecap="round"/>
<path d="M32.9187 19.5846L33.8276 27.4585" stroke="#2F7965" stroke-miterlimit="10" stroke-linecap="round"/>
<path d="M33.8276 27.4585L34.7366 22.5365" stroke="#2F7965" stroke-miterlimit="10" stroke-linecap="round"/>
<path d="M34.7363 22.5365L35.6452 25.2813" stroke="#2F7965" stroke-miterlimit="10" stroke-linecap="round"/>
<path d="M35.6453 25.2812L36.5542 27.6994" stroke="#2F7965" stroke-miterlimit="10" stroke-linecap="round"/>
<path d="M36.5542 27.6995L37.4631 30.4299" stroke="#2F7965" stroke-miterlimit="10" stroke-linecap="round"/>
<path d="M37.4631 30.4298L38.3721 35.4785" stroke="#2F7965" stroke-miterlimit="10" stroke-linecap="round"/>
<path d="M38.3721 35.4785L39.281 31.8364" stroke="#2F7965" stroke-miterlimit="10" stroke-linecap="round"/>
<path d="M39.281 31.8364L40.1899 33.9682" stroke="#2F7965" stroke-miterlimit="10" stroke-linecap="round"/>
<path d="M40.1899 33.9683L41.0989 30.5486" stroke="#2F7965" stroke-miterlimit="10" stroke-linecap="round"/>
<path d="M41.0989 30.5486L42.0078 29.6367" stroke="#2F7965" stroke-miterlimit="10" stroke-linecap="round"/>
<path d="M42.0078 29.6367L42.9167 27.8564" stroke="#2F7965" stroke-miterlimit="10" stroke-linecap="round"/>
<path d="M42.9167 27.8564L43.8257 26.0587" stroke="#2F7965" stroke-miterlimit="10" stroke-linecap="round"/>
<path d="M43.8257 26.0587L44.7346 26.371" stroke="#2F7965" stroke-miterlimit="10" stroke-linecap="round"/>
<path d="M44.7346 26.371L45.6435 27.6249" stroke="#2F7965" stroke-miterlimit="10" stroke-linecap="round"/>
<path d="M45.6436 27.6249L46.5525 29.5015" stroke="#2F7965" stroke-miterlimit="10" stroke-linecap="round"/>
<path d="M46.5522 29.5016L47.4612 35.1091" stroke="#2F7965" stroke-miterlimit="10" stroke-linecap="round"/>
<path d="M47.4612 35.109L48.3701 40.5608" stroke="#2F7965" stroke-miterlimit="10" stroke-linecap="round"/>
<path d="M48.3701 40.5608L49.279 46.08" stroke="#2F7965" stroke-miterlimit="10" stroke-linecap="round"/>
<path d="M49.2791 46.0801L50.188 43.2864" stroke="#2F7965" stroke-miterlimit="10" stroke-linecap="round"/>
<path d="M50.188 43.2864L51.0969 44.9368" stroke="#2F7965" stroke-miterlimit="10" stroke-linecap="round"/>
<path d="M51.0969 44.9368L52.0058 37.1218" stroke="#2F7965" stroke-miterlimit="10" stroke-linecap="round"/>
<path d="M52.0059 37.1218L52.9148 37.0049" stroke="#2F7965" stroke-miterlimit="10" stroke-linecap="round"/>
<path d="M52.9148 37.0049L53.8237 35.8411" stroke="#2F7965" stroke-miterlimit="10" stroke-linecap="round"/>
<path d="M53.8237 35.8411L54.7326 39.5679" stroke="#2F7965" stroke-miterlimit="10" stroke-linecap="round"/>
<path d="M54.7327 39.5679L55.6416 35.2068" stroke="#2F7965" stroke-miterlimit="10" stroke-linecap="round"/>
<path d="M55.6416 35.2068L56.5505 36.2374" stroke="#2F7965" stroke-miterlimit="10" stroke-linecap="round"/>
<path d="M56.5505 36.2374L57.4595 35.5328" stroke="#2F7965" stroke-miterlimit="10" stroke-linecap="round"/>
<path d="M57.4592 35.5328L58.3681 34.0466" stroke="#2F7965" stroke-miterlimit="10" stroke-linecap="round"/>
<path d="M58.3682 34.0466L59.2771 34.5469" stroke="#2F7965" stroke-miterlimit="10" stroke-linecap="round"/>
<path d="M59.2771 34.547L60.186 32.7407" stroke="#2F7965" stroke-miterlimit="10" stroke-linecap="round"/>
<path d="M60.186 32.7406L61.095 29.8059" stroke="#2F7965" stroke-miterlimit="10" stroke-linecap="round"/>
<path d="M61.095 29.8059L62.0039 31.729" stroke="#2F7965" stroke-miterlimit="10" stroke-linecap="round"/>
<path d="M62.0039 31.729L62.9128 35.2899" stroke="#2F7965" stroke-miterlimit="10" stroke-linecap="round"/>
<path d="M62.9128 35.29L63.8218 33.1116" stroke="#2F7965" stroke-miterlimit="10" stroke-linecap="round"/>
<path d="M63.8218 33.1116L64.7307 29.9891" stroke="#2F7965" stroke-miterlimit="10" stroke-linecap="round"/>
<path d="M64.7307 29.9891L65.6396 31.3444" stroke="#2F7965" stroke-miterlimit="10" stroke-linecap="round"/>
<path d="M65.6396 31.3444L66.5486 29.3246" stroke="#2F7965" stroke-miterlimit="10" stroke-linecap="round"/>
<path d="M66.5486 29.3246L67.4575 31.6315" stroke="#2F7965" stroke-miterlimit="10" stroke-linecap="round"/>
<path d="M67.4575 31.6315L68.3664 29.8013" stroke="#2F7965" stroke-miterlimit="10" stroke-linecap="round"/>
<path d="M68.3662 29.8013L69.2751 27.3512" stroke="#2F7965" stroke-miterlimit="10" stroke-linecap="round"/>
<path d="M69.2751 27.3512L70.1841 26.4432" stroke="#2F7965" stroke-miterlimit="10" stroke-linecap="round"/>
<path d="M70.1841 26.4432L71.093 27.2805" stroke="#2F7965" stroke-miterlimit="10" stroke-linecap="round"/>
<path d="M71.093 27.2805L72.0019 26.5199" stroke="#2F7965" stroke-miterlimit="10" stroke-linecap="round"/>
<path d="M72.002 26.52L72.9109 26.2866" stroke="#2F7965" stroke-miterlimit="10" stroke-linecap="round"/>
<path d="M72.9109 26.2866L73.8198 23.882" stroke="#2F7965" stroke-miterlimit="10" stroke-linecap="round"/>
<path d="M73.8198 23.882L74.7287 23.966" stroke="#2F7965" stroke-miterlimit="10" stroke-linecap="round"/>
<path d="M74.7288 23.9659L75.6377 25.2042" stroke="#2F7965" stroke-miterlimit="10" stroke-linecap="round"/>
<path d="M75.6377 25.2042L76.5466 26.2339" stroke="#2F7965" stroke-miterlimit="10" stroke-linecap="round"/>
<path d="M76.5466 26.2338L77.4555 27.5076" stroke="#2F7965" stroke-miterlimit="10" stroke-linecap="round"/>
<path d="M77.4556 27.5077L78.3645 28.2503" stroke="#2F7965" stroke-miterlimit="10" stroke-linecap="round"/>
<path d="M78.3645 28.2503L79.2734 25.4572" stroke="#2F7965" stroke-miterlimit="10" stroke-linecap="round"/>
<path d="M79.2734 25.4572L80.1824 26.0363" stroke="#2F7965" stroke-miterlimit="10" stroke-linecap="round"/>
<path d="M80.1821 26.0363L81.091 25.5203" stroke="#2F7965" stroke-miterlimit="10" stroke-linecap="round"/>
<path d="M81.0911 25.5203L82 25.4515" stroke="#2F7965" stroke-miterlimit="10" stroke-linecap="round"/>
<path d="M82 25.4515L82.9089 25.7277" stroke="#2F7965" stroke-miterlimit="10" stroke-linecap="round"/>
<path d="M82.9089 25.7278L83.8179 26.1024" stroke="#2F7965" stroke-miterlimit="10" stroke-linecap="round"/>
<path d="M83.8179 26.1023L84.7268 26.2683" stroke="#2F7965" stroke-miterlimit="10" stroke-linecap="round"/>
<path d="M84.7268 26.2683L85.6357 27.9768" stroke="#2F7965" stroke-miterlimit="10" stroke-linecap="round"/>
<path d="M85.6357 27.9768L86.5447 27.8446" stroke="#2F7965" stroke-miterlimit="10" stroke-linecap="round"/>
<path d="M86.5447 27.8446L87.4536 28.5148" stroke="#2F7965" stroke-miterlimit="10" stroke-linecap="round"/>
<path d="M87.4536 28.5148L88.3625 25.5" stroke="#2F7965" stroke-miterlimit="10" stroke-linecap="round"/>
<path d="M88.3625 25.5L89.2715 26.5809" stroke="#2F7965" stroke-miterlimit="10" stroke-linecap="round"/>
<path d="M89.2715 26.5809L90.1804 27.2872" stroke="#2F7965" stroke-miterlimit="10" stroke-linecap="round"/>
<path d="M90.1804 27.2872L91.0893 27.8301" stroke="#2F7965" stroke-miterlimit="10" stroke-linecap="round"/>
<path d="M91.0891 27.8301L91.998 27.8578" stroke="#2F7965" stroke-miterlimit="10" stroke-linecap="round"/>
<path d="M91.998 27.8578L92.907 29.7969" stroke="#2F7965" stroke-miterlimit="10" stroke-linecap="round"/>
<path d="M92.907 29.7969L93.8159 25.1987" stroke="#2F7965" stroke-miterlimit="10" stroke-linecap="round"/>
<path d="M93.8159 25.1988L94.7248 23.5522" stroke="#2F7965" stroke-miterlimit="10" stroke-linecap="round"/>
<path d="M94.7249 23.5522L95.6338 23.9848" stroke="#2F7965" stroke-miterlimit="10" stroke-linecap="round"/>
<path d="M95.6338 23.9849L96.5427 24.8006" stroke="#2F7965" stroke-miterlimit="10" stroke-linecap="round"/>
<path d="M96.5427 24.8005L97.4516 20.6597" stroke="#2F7965" stroke-miterlimit="10" stroke-linecap="round"/>
<path d="M97.4517 20.6597L98.3606 19.0684" stroke="#2F7965" stroke-miterlimit="10" stroke-linecap="round"/>
<path d="M98.3606 19.0684L99.2695 20.8104" stroke="#2F7965" stroke-miterlimit="10" stroke-linecap="round"/>
<path d="M99.2695 20.8103L100.178 20.547" stroke="#2F7965" stroke-miterlimit="10" stroke-linecap="round"/>
<path d="M100.178 20.547L101.087 21.3203" stroke="#2F7965" stroke-miterlimit="10" stroke-linecap="round"/>
<path d="M101.087 21.3203L101.996 19.2906" stroke="#2F7965" stroke-miterlimit="10" stroke-linecap="round"/>
<path d="M101.996 19.2906L102.905 20.7399" stroke="#2F7965" stroke-miterlimit="10" stroke-linecap="round"/>
<path d="M102.905 20.7399L103.814 19.9382" stroke="#2F7965" stroke-miterlimit="10" stroke-linecap="round"/>
<path d="M103.814 19.9382L104.723 21.4757" stroke="#2F7965" stroke-miterlimit="10" stroke-linecap="round"/>
<path d="M104.723 21.4758L105.632 20.3538" stroke="#2F7965" stroke-miterlimit="10" stroke-linecap="round"/>
<path d="M105.632 20.3538L106.541 22.1678" stroke="#2F7965" stroke-miterlimit="10" stroke-linecap="round"/>
<path d="M106.541 22.1677L107.45 23.4811" stroke="#2F7965" stroke-miterlimit="10" stroke-linecap="round"/>
<path d="M107.45 23.4811L108.359 24.4614" stroke="#2F7965" stroke-miterlimit="10" stroke-linecap="round"/>
<path d="M108.359 24.4614L109.268 22.6045" stroke="#2F7965" stroke-miterlimit="10" stroke-linecap="round"/>
<path d="M109.268 22.6045L110.176 16.0295" stroke="#2F7965" stroke-miterlimit="10" stroke-linecap="round"/>
<path d="M110.177 16.0296L111.085 14.5822" stroke="#2F7965" stroke-miterlimit="10" stroke-linecap="round"/>
<path d="M111.085 14.5821L111.994 13.4432" stroke="#2F7965" stroke-miterlimit="10" stroke-linecap="round"/>
<path d="M111.994 13.4432L112.903 11.1302" stroke="#2F7965" stroke-miterlimit="10" stroke-linecap="round"/>
<path d="M112.903 11.1302L113.812 11.8684" stroke="#2F7965" stroke-miterlimit="10" stroke-linecap="round"/>
<path d="M113.812 11.8684L114.721 10.9219" stroke="#2F7965" stroke-miterlimit="10" stroke-linecap="round"/>
<path d="M114.721 10.9219L115.63 11.005" stroke="#2F7965" stroke-miterlimit="10" stroke-linecap="round"/>
<path d="M115.63 11.005L116.539 11.8459" stroke="#2F7965" stroke-miterlimit="10" stroke-linecap="round"/>
<path d="M116.539 11.8459L117.448 13.0689" stroke="#2F7965" stroke-miterlimit="10" stroke-linecap="round"/>
<path d="M117.448 13.0688L118.357 13.6782" stroke="#2F7965" stroke-miterlimit="10" stroke-linecap="round"/>
<path d="M118.357 13.6782L119.266 12.6023" stroke="#2F7965" stroke-miterlimit="10" stroke-linecap="round"/>
<path d="M119.266 12.6023L120.175 11.2462" stroke="#2F7965" stroke-miterlimit="10" stroke-linecap="round"/>
<path d="M120.175 11.2462L121.083 10.9459" stroke="#2F7965" stroke-miterlimit="10" stroke-linecap="round"/>
<path d="M121.083 10.9459L121.992 14.5417" stroke="#2F7965" stroke-miterlimit="10" stroke-linecap="round"/>
<path d="M121.992 14.5417L122.901 12.7419" stroke="#2F7965" stroke-miterlimit="10" stroke-linecap="round"/>
<path d="M122.901 12.7419L123.81 10.4182" stroke="#2F7965" stroke-miterlimit="10" stroke-linecap="round"/>
<path d="M123.81 10.4182L124.719 1.92004" stroke="#2F7965" stroke-miterlimit="10" stroke-linecap="round"/>
<path d="M124.719 1.92004L125.628 3.05476" stroke="#2F7965" stroke-miterlimit="10" stroke-linecap="round"/>
<path d="M125.628 3.05481L126.537 8.37331" stroke="#2F7965" stroke-miterlimit="10" stroke-linecap="round"/>
<path d="M126.537 8.37322L127.446 7.40625" stroke="#2F7965" stroke-miterlimit="10" stroke-linecap="round"/>
<path d="M127.446 7.40625L128.355 8.17509" stroke="#2F7965" stroke-miterlimit="10" stroke-linecap="round"/>
<path d="M128.355 8.17517L129.264 8.82622" stroke="#2F7965" stroke-miterlimit="10" stroke-linecap="round"/>
<path d="M129.264 8.82617L130.173 11.5406" stroke="#2F7965" stroke-miterlimit="10" stroke-linecap="round"/>
<path d="M130.173 11.5406L131.082 13.4211" stroke="#2F7965" stroke-miterlimit="10" stroke-linecap="round"/>
<path d="M131.082 13.4211L131.99 13.3662" stroke="#2F7965" stroke-miterlimit="10" stroke-linecap="round"/>
<path d="M131.99 13.3662L132.899 17.7707" stroke="#2F7965" stroke-miterlimit="10" stroke-linecap="round"/>
<path d="M132.899 17.7707L133.808 17.5676" stroke="#2F7965" stroke-miterlimit="10" stroke-linecap="round"/>
<path d="M133.808 17.5676L134.717 16.561" stroke="#2F7965" stroke-miterlimit="10" stroke-linecap="round"/>
<path d="M134.717 16.561L135.626 17.1181" stroke="#2F7965" stroke-miterlimit="10" stroke-linecap="round"/>
<path d="M135.626 17.1182L136.535 18.979" stroke="#2F7965" stroke-miterlimit="10" stroke-linecap="round"/>
<path d="M136.535 18.979L137.444 19.8157" stroke="#2F7965" stroke-miterlimit="10" stroke-linecap="round"/>
<path d="M137.444 19.8157L138.353 18.014" stroke="#2F7965" stroke-miterlimit="10" stroke-linecap="round"/>
<path d="M138.353 18.0141L139.262 16.5107" stroke="#2F7965" stroke-miterlimit="10" stroke-linecap="round"/>
<path d="M139.262 16.5107L140.171 16.8652" stroke="#2F7965" stroke-miterlimit="10" stroke-linecap="round"/>
<path d="M140.171 16.8651L141.08 19.2967" stroke="#2F7965" stroke-miterlimit="10" stroke-linecap="round"/>
<path d="M141.08 19.2968L141.989 9.78748" stroke="#2F7965" stroke-miterlimit="10" stroke-linecap="round"/>
<path d="M141.989 9.78742L142.897 4.5282" stroke="#2F7965" stroke-miterlimit="10" stroke-linecap="round"/>
<path d="M142.897 4.5282L143.806 7.67685" stroke="#2F7965" stroke-miterlimit="10" stroke-linecap="round"/>
<path d="M143.806 7.67688L144.715 8.01457" stroke="#2F7965" stroke-miterlimit="10" stroke-linecap="round"/>
<path d="M144.715 8.01453L145.624 9.46146" stroke="#2F7965" stroke-miterlimit="10" stroke-linecap="round"/>
<path d="M145.624 9.46144L146.533 7.44397" stroke="#2F7965" stroke-miterlimit="10" stroke-linecap="round"/>
<path d="M146.533 7.44397L147.442 10.3859" stroke="#2F7965" stroke-miterlimit="10" stroke-linecap="round"/>
<path d="M147.442 10.386L148.351 10.5887" stroke="#2F7965" stroke-miterlimit="10" stroke-linecap="round"/>
<path d="M148.351 10.5886L149.26 14.7837" stroke="#2F7965" stroke-miterlimit="10" stroke-linecap="round"/>
<path d="M149.26 14.7837L150.169 17.5884" stroke="#2F7965" stroke-miterlimit="10" stroke-linecap="round"/>
<path d="M150.169 17.5884L151.078 18.7001" stroke="#2F7965" stroke-miterlimit="10" stroke-linecap="round"/>
<path d="M151.078 18.7001L151.987 17.0319" stroke="#2F7965" stroke-miterlimit="10" stroke-linecap="round"/>
<path d="M151.987 17.0319L152.895 17.2264" stroke="#2F7965" stroke-miterlimit="10" stroke-linecap="round"/>
<path d="M152.896 17.2263L153.804 17.892" stroke="#2F7965" stroke-miterlimit="10" stroke-linecap="round"/>
<path d="M153.804 17.892L154.713 15.8502" stroke="#2F7965" stroke-miterlimit="10" stroke-linecap="round"/>
<path d="M154.713 15.8502L155.622 20.2624" stroke="#2F7965" stroke-miterlimit="10" stroke-linecap="round"/>
<path d="M155.622 20.2624L156.531 20.033" stroke="#2F7965" stroke-miterlimit="10" stroke-linecap="round"/>
<path d="M156.531 20.033L157.44 19.5884" stroke="#2F7965" stroke-miterlimit="10" stroke-linecap="round"/>
</g>
</g>
<defs>
<clipPath id="clip0_22_907">
<rect width="164" height="48" fill="white"/>
</clipPath>
</defs>
</svg>
