<svg width="164" height="48" viewBox="0 0 164 48" fill="none" xmlns="http://www.w3.org/2000/svg">
<g clip-path="url(#clip0_22_1253)">
<mask id="mask0_22_1253" style="mask-type:luminance" maskUnits="userSpaceOnUse" x="0" y="0" width="164" height="48">
<path d="M164 0H0V48H164V0Z" fill="white"/>
</mask>
<g mask="url(#mask0_22_1253)">
<path d="M6.56006 16.5057L7.46897 13.2137" stroke="#2F7965" stroke-miterlimit="10" stroke-linecap="round"/>
<path d="M7.46899 13.2137L8.37791 14.9202" stroke="#2F7965" stroke-miterlimit="10" stroke-linecap="round"/>
<path d="M8.37793 14.9202L9.28685 16.6114" stroke="#2F7965" stroke-miterlimit="10" stroke-linecap="round"/>
<path d="M9.28687 16.6115L10.1958 17.8882" stroke="#2F7965" stroke-miterlimit="10" stroke-linecap="round"/>
<path d="M10.1957 17.8881L11.1046 20.6573" stroke="#2F7965" stroke-miterlimit="10" stroke-linecap="round"/>
<path d="M11.1046 20.6573L12.0135 20.7448" stroke="#2F7965" stroke-miterlimit="10" stroke-linecap="round"/>
<path d="M12.0135 20.7448L12.9225 22.3512" stroke="#2F7965" stroke-miterlimit="10" stroke-linecap="round"/>
<path d="M12.9225 22.3512L13.8314 21.6405" stroke="#2F7965" stroke-miterlimit="10" stroke-linecap="round"/>
<path d="M13.8314 21.6405L14.7403 21.8209" stroke="#2F7965" stroke-miterlimit="10" stroke-linecap="round"/>
<path d="M14.7404 21.821L15.6493 26.1601" stroke="#2F7965" stroke-miterlimit="10" stroke-linecap="round"/>
<path d="M15.6492 26.16L16.5581 27.3595" stroke="#2F7965" stroke-miterlimit="10" stroke-linecap="round"/>
<path d="M16.5581 27.3595L17.467 30.2814" stroke="#2F7965" stroke-miterlimit="10" stroke-linecap="round"/>
<path d="M17.467 30.2814L18.376 31.5297" stroke="#2F7965" stroke-miterlimit="10" stroke-linecap="round"/>
<path d="M18.376 31.5297L19.2849 30.3387" stroke="#2F7965" stroke-miterlimit="10" stroke-linecap="round"/>
<path d="M19.2849 30.3387L20.1938 31.5116" stroke="#2F7965" stroke-miterlimit="10" stroke-linecap="round"/>
<path d="M20.1938 31.5116L21.1028 29.7975" stroke="#2F7965" stroke-miterlimit="10" stroke-linecap="round"/>
<path d="M21.1027 29.7975L22.0116 30.3958" stroke="#2F7965" stroke-miterlimit="10" stroke-linecap="round"/>
<path d="M22.0116 30.3958L22.9205 29.0076" stroke="#2F7965" stroke-miterlimit="10" stroke-linecap="round"/>
<path d="M22.9205 29.0076L23.8294 31.2724" stroke="#2F7965" stroke-miterlimit="10" stroke-linecap="round"/>
<path d="M23.8295 31.2724L24.7384 28.491" stroke="#2F7965" stroke-miterlimit="10" stroke-linecap="round"/>
<path d="M24.7384 28.491L25.6473 25.5597" stroke="#2F7965" stroke-miterlimit="10" stroke-linecap="round"/>
<path d="M25.6473 25.5596L26.5563 25.3804" stroke="#2F7965" stroke-miterlimit="10" stroke-linecap="round"/>
<path d="M26.5562 25.3804L27.4651 25.2213" stroke="#2F7965" stroke-miterlimit="10" stroke-linecap="round"/>
<path d="M27.4651 25.2213L28.374 27.8843" stroke="#2F7965" stroke-miterlimit="10" stroke-linecap="round"/>
<path d="M28.374 27.8843L29.2829 26.17" stroke="#2F7965" stroke-miterlimit="10" stroke-linecap="round"/>
<path d="M29.283 26.17L30.1919 26.9958" stroke="#2F7965" stroke-miterlimit="10" stroke-linecap="round"/>
<path d="M30.1919 26.9958L31.1008 26.9171" stroke="#2F7965" stroke-miterlimit="10" stroke-linecap="round"/>
<path d="M31.1008 26.9171L32.0097 29.8884" stroke="#2F7965" stroke-miterlimit="10" stroke-linecap="round"/>
<path d="M32.0096 29.8884L32.9186 29.2185" stroke="#2F7965" stroke-miterlimit="10" stroke-linecap="round"/>
<path d="M32.9186 29.2185L33.8275 34.308" stroke="#2F7965" stroke-miterlimit="10" stroke-linecap="round"/>
<path d="M33.8275 34.308L34.7364 32.1399" stroke="#2F7965" stroke-miterlimit="10" stroke-linecap="round"/>
<path d="M34.7365 32.1399L35.6454 33.668" stroke="#2F7965" stroke-miterlimit="10" stroke-linecap="round"/>
<path d="M35.6454 33.6681L36.5543 34.7035" stroke="#2F7965" stroke-miterlimit="10" stroke-linecap="round"/>
<path d="M36.5543 34.7035L37.4632 36.7888" stroke="#2F7965" stroke-miterlimit="10" stroke-linecap="round"/>
<path d="M37.4631 36.7888L38.3721 38.7122" stroke="#2F7965" stroke-miterlimit="10" stroke-linecap="round"/>
<path d="M38.3721 38.7121L39.281 35.5946" stroke="#2F7965" stroke-miterlimit="10" stroke-linecap="round"/>
<path d="M39.281 35.5946L40.1899 38.4094" stroke="#2F7965" stroke-miterlimit="10" stroke-linecap="round"/>
<path d="M40.1899 38.4094L41.0989 41.6534" stroke="#2F7965" stroke-miterlimit="10" stroke-linecap="round"/>
<path d="M41.0989 41.6534L42.0078 38.735" stroke="#2F7965" stroke-miterlimit="10" stroke-linecap="round"/>
<path d="M42.0078 38.735L42.9167 39.0067" stroke="#2F7965" stroke-miterlimit="10" stroke-linecap="round"/>
<path d="M42.9166 39.0067L43.8255 37.7494" stroke="#2F7965" stroke-miterlimit="10" stroke-linecap="round"/>
<path d="M43.8256 37.7493L44.7345 37.1719" stroke="#2F7965" stroke-miterlimit="10" stroke-linecap="round"/>
<path d="M44.7345 37.1719L45.6434 36.189" stroke="#2F7965" stroke-miterlimit="10" stroke-linecap="round"/>
<path d="M45.6434 36.189L46.5523 38.1464" stroke="#2F7965" stroke-miterlimit="10" stroke-linecap="round"/>
<path d="M46.5524 38.1465L47.4613 42.1558" stroke="#2F7965" stroke-miterlimit="10" stroke-linecap="round"/>
<path d="M47.4613 42.1558L48.3702 46.0801" stroke="#2F7965" stroke-miterlimit="10" stroke-linecap="round"/>
<path d="M48.3701 46.0801L49.279 45.2244" stroke="#2F7965" stroke-miterlimit="10" stroke-linecap="round"/>
<path d="M49.2791 45.2244L50.188 45.3361" stroke="#2F7965" stroke-miterlimit="10" stroke-linecap="round"/>
<path d="M50.188 45.3362L51.0969 44.9761" stroke="#2F7965" stroke-miterlimit="10" stroke-linecap="round"/>
<path d="M51.0969 44.976L52.0058 40.7563" stroke="#2F7965" stroke-miterlimit="10" stroke-linecap="round"/>
<path d="M52.0059 40.7564L52.9148 39.4388" stroke="#2F7965" stroke-miterlimit="10" stroke-linecap="round"/>
<path d="M52.9148 39.4388L53.8237 36.3269" stroke="#2F7965" stroke-miterlimit="10" stroke-linecap="round"/>
<path d="M53.8237 36.3269L54.7326 38.6607" stroke="#2F7965" stroke-miterlimit="10" stroke-linecap="round"/>
<path d="M54.7325 38.6608L55.6415 38.4209" stroke="#2F7965" stroke-miterlimit="10" stroke-linecap="round"/>
<path d="M55.6415 38.4208L56.5504 36.2885" stroke="#2F7965" stroke-miterlimit="10" stroke-linecap="round"/>
<path d="M56.5504 36.2885L57.4593 37.784" stroke="#2F7965" stroke-miterlimit="10" stroke-linecap="round"/>
<path d="M57.4594 37.7841L58.3683 35.2278" stroke="#2F7965" stroke-miterlimit="10" stroke-linecap="round"/>
<path d="M58.3683 35.2278L59.2772 36.8522" stroke="#2F7965" stroke-miterlimit="10" stroke-linecap="round"/>
<path d="M59.2772 36.8522L60.1861 31.6963" stroke="#2F7965" stroke-miterlimit="10" stroke-linecap="round"/>
<path d="M60.186 31.6962L61.095 30.5187" stroke="#2F7965" stroke-miterlimit="10" stroke-linecap="round"/>
<path d="M61.095 30.5187L62.0039 33.8829" stroke="#2F7965" stroke-miterlimit="10" stroke-linecap="round"/>
<path d="M62.0039 33.8829L62.9128 35.5744" stroke="#2F7965" stroke-miterlimit="10" stroke-linecap="round"/>
<path d="M62.9128 35.5744L63.8218 35.3464" stroke="#2F7965" stroke-miterlimit="10" stroke-linecap="round"/>
<path d="M63.8218 35.3463L64.7307 35.1848" stroke="#2F7965" stroke-miterlimit="10" stroke-linecap="round"/>
<path d="M64.7307 35.1848L65.6396 37.6375" stroke="#2F7965" stroke-miterlimit="10" stroke-linecap="round"/>
<path d="M65.6395 37.6375L66.5484 37.5018" stroke="#2F7965" stroke-miterlimit="10" stroke-linecap="round"/>
<path d="M66.5485 37.5018L67.4574 36.8795" stroke="#2F7965" stroke-miterlimit="10" stroke-linecap="round"/>
<path d="M67.4574 36.8795L68.3663 35.7781" stroke="#2F7965" stroke-miterlimit="10" stroke-linecap="round"/>
<path d="M68.3663 35.7781L69.2752 36.4283" stroke="#2F7965" stroke-miterlimit="10" stroke-linecap="round"/>
<path d="M69.2753 36.4284L70.1842 35.9283" stroke="#2F7965" stroke-miterlimit="10" stroke-linecap="round"/>
<path d="M70.1842 35.9283L71.0931 36.9753" stroke="#2F7965" stroke-miterlimit="10" stroke-linecap="round"/>
<path d="M71.093 36.9752L72.0019 34.8994" stroke="#2F7965" stroke-miterlimit="10" stroke-linecap="round"/>
<path d="M72.002 34.8994L72.9109 34.738" stroke="#2F7965" stroke-miterlimit="10" stroke-linecap="round"/>
<path d="M72.9109 34.7381L73.8198 33.224" stroke="#2F7965" stroke-miterlimit="10" stroke-linecap="round"/>
<path d="M73.8198 33.224L74.7287 33.9798" stroke="#2F7965" stroke-miterlimit="10" stroke-linecap="round"/>
<path d="M74.7288 33.9797L75.6377 36.1639" stroke="#2F7965" stroke-miterlimit="10" stroke-linecap="round"/>
<path d="M75.6377 36.1639L76.5466 36.4338" stroke="#2F7965" stroke-miterlimit="10" stroke-linecap="round"/>
<path d="M76.5466 36.4338L77.4555 37.1086" stroke="#2F7965" stroke-miterlimit="10" stroke-linecap="round"/>
<path d="M77.4554 37.1086L78.3644 37.9539" stroke="#2F7965" stroke-miterlimit="10" stroke-linecap="round"/>
<path d="M78.3644 37.9538L79.2733 36.0522" stroke="#2F7965" stroke-miterlimit="10" stroke-linecap="round"/>
<path d="M79.2733 36.0523L80.1822 34.696" stroke="#2F7965" stroke-miterlimit="10" stroke-linecap="round"/>
<path d="M80.1823 34.6961L81.0912 33.1547" stroke="#2F7965" stroke-miterlimit="10" stroke-linecap="round"/>
<path d="M81.0912 33.1547L82.0001 33.7885" stroke="#2F7965" stroke-miterlimit="10" stroke-linecap="round"/>
<path d="M82 33.7885L82.9089 35.4075" stroke="#2F7965" stroke-miterlimit="10" stroke-linecap="round"/>
<path d="M82.9089 35.4076L83.8179 35.896" stroke="#2F7965" stroke-miterlimit="10" stroke-linecap="round"/>
<path d="M83.8179 35.896L84.7268 33.9387" stroke="#2F7965" stroke-miterlimit="10" stroke-linecap="round"/>
<path d="M84.7268 33.9387L85.6357 35.166" stroke="#2F7965" stroke-miterlimit="10" stroke-linecap="round"/>
<path d="M85.6357 35.1661L86.5447 32.7578" stroke="#2F7965" stroke-miterlimit="10" stroke-linecap="round"/>
<path d="M86.5447 32.7578L87.4536 33.4184" stroke="#2F7965" stroke-miterlimit="10" stroke-linecap="round"/>
<path d="M87.4536 33.4183L88.3625 32.4092" stroke="#2F7965" stroke-miterlimit="10" stroke-linecap="round"/>
<path d="M88.3624 32.4092L89.2713 32.616" stroke="#2F7965" stroke-miterlimit="10" stroke-linecap="round"/>
<path d="M89.2714 32.6161L90.1803 33.9932" stroke="#2F7965" stroke-miterlimit="10" stroke-linecap="round"/>
<path d="M90.1803 33.9932L91.0892 34.8077" stroke="#2F7965" stroke-miterlimit="10" stroke-linecap="round"/>
<path d="M91.0892 34.8077L91.9981 35.6043" stroke="#2F7965" stroke-miterlimit="10" stroke-linecap="round"/>
<path d="M91.9982 35.6042L92.9071 37.2111" stroke="#2F7965" stroke-miterlimit="10" stroke-linecap="round"/>
<path d="M92.9071 37.2111L93.816 35.0723" stroke="#2F7965" stroke-miterlimit="10" stroke-linecap="round"/>
<path d="M93.8159 35.0723L94.7248 34.9169" stroke="#2F7965" stroke-miterlimit="10" stroke-linecap="round"/>
<path d="M94.7249 34.9169L95.6338 35.1868" stroke="#2F7965" stroke-miterlimit="10" stroke-linecap="round"/>
<path d="M95.6338 35.1868L96.5427 36.2101" stroke="#2F7965" stroke-miterlimit="10" stroke-linecap="round"/>
<path d="M96.5427 36.2102L97.4516 34.313" stroke="#2F7965" stroke-miterlimit="10" stroke-linecap="round"/>
<path d="M97.4517 34.3129L98.3606 33.135" stroke="#2F7965" stroke-miterlimit="10" stroke-linecap="round"/>
<path d="M98.3606 33.1351L99.2695 32.2776" stroke="#2F7965" stroke-miterlimit="10" stroke-linecap="round"/>
<path d="M99.2694 32.2776L100.178 32.3222" stroke="#2F7965" stroke-miterlimit="10" stroke-linecap="round"/>
<path d="M100.178 32.3222L101.087 30.3634" stroke="#2F7965" stroke-miterlimit="10" stroke-linecap="round"/>
<path d="M101.087 30.3633L101.996 27.438" stroke="#2F7965" stroke-miterlimit="10" stroke-linecap="round"/>
<path d="M101.996 27.438L102.905 28.8654" stroke="#2F7965" stroke-miterlimit="10" stroke-linecap="round"/>
<path d="M102.905 28.8654L103.814 28.4049" stroke="#2F7965" stroke-miterlimit="10" stroke-linecap="round"/>
<path d="M103.814 28.4049L104.723 27.5757" stroke="#2F7965" stroke-miterlimit="10" stroke-linecap="round"/>
<path d="M104.723 27.5756L105.632 24.9272" stroke="#2F7965" stroke-miterlimit="10" stroke-linecap="round"/>
<path d="M105.632 24.9272L106.541 27.6656" stroke="#2F7965" stroke-miterlimit="10" stroke-linecap="round"/>
<path d="M106.541 27.6657L107.45 25.2878" stroke="#2F7965" stroke-miterlimit="10" stroke-linecap="round"/>
<path d="M107.45 25.2878L108.359 27.0231" stroke="#2F7965" stroke-miterlimit="10" stroke-linecap="round"/>
<path d="M108.359 27.0231L109.268 28.3991" stroke="#2F7965" stroke-miterlimit="10" stroke-linecap="round"/>
<path d="M109.268 28.3992L110.176 25.1826" stroke="#2F7965" stroke-miterlimit="10" stroke-linecap="round"/>
<path d="M110.176 25.1826L111.085 22.8152" stroke="#2F7965" stroke-miterlimit="10" stroke-linecap="round"/>
<path d="M111.085 22.8152L111.994 24.6929" stroke="#2F7965" stroke-miterlimit="10" stroke-linecap="round"/>
<path d="M111.994 24.6929L112.903 25.8279" stroke="#2F7965" stroke-miterlimit="10" stroke-linecap="round"/>
<path d="M112.903 25.8279L113.812 26.7303" stroke="#2F7965" stroke-miterlimit="10" stroke-linecap="round"/>
<path d="M113.812 26.7303L114.721 24.7292" stroke="#2F7965" stroke-miterlimit="10" stroke-linecap="round"/>
<path d="M114.721 24.7292L115.63 25.8445" stroke="#2F7965" stroke-miterlimit="10" stroke-linecap="round"/>
<path d="M115.63 25.8445L116.539 26.1099" stroke="#2F7965" stroke-miterlimit="10" stroke-linecap="round"/>
<path d="M116.539 26.1099L117.448 21.3168" stroke="#2F7965" stroke-miterlimit="10" stroke-linecap="round"/>
<path d="M117.448 21.3168L118.357 20.0596" stroke="#2F7965" stroke-miterlimit="10" stroke-linecap="round"/>
<path d="M118.357 20.0595L119.266 19.2209" stroke="#2F7965" stroke-miterlimit="10" stroke-linecap="round"/>
<path d="M119.266 19.221L120.175 16.3176" stroke="#2F7965" stroke-miterlimit="10" stroke-linecap="round"/>
<path d="M120.175 16.3176L121.083 16.6277" stroke="#2F7965" stroke-miterlimit="10" stroke-linecap="round"/>
<path d="M121.083 16.6277L121.992 20.2654" stroke="#2F7965" stroke-miterlimit="10" stroke-linecap="round"/>
<path d="M121.992 20.2653L122.901 14.5577" stroke="#2F7965" stroke-miterlimit="10" stroke-linecap="round"/>
<path d="M122.901 14.5578L123.81 7.6792" stroke="#2F7965" stroke-miterlimit="10" stroke-linecap="round"/>
<path d="M123.81 7.6792L124.719 10.8226" stroke="#2F7965" stroke-miterlimit="10" stroke-linecap="round"/>
<path d="M124.719 10.8225L125.628 11.6014" stroke="#2F7965" stroke-miterlimit="10" stroke-linecap="round"/>
<path d="M125.628 11.6014L126.537 13.9713" stroke="#2F7965" stroke-miterlimit="10" stroke-linecap="round"/>
<path d="M126.537 13.9713L127.446 14.6796" stroke="#2F7965" stroke-miterlimit="10" stroke-linecap="round"/>
<path d="M127.446 14.6797L128.355 13.8749" stroke="#2F7965" stroke-miterlimit="10" stroke-linecap="round"/>
<path d="M128.355 13.8748L129.264 13.7368" stroke="#2F7965" stroke-miterlimit="10" stroke-linecap="round"/>
<path d="M129.264 13.7368L130.173 14.3909" stroke="#2F7965" stroke-miterlimit="10" stroke-linecap="round"/>
<path d="M130.173 14.3909L131.082 15.283" stroke="#2F7965" stroke-miterlimit="10" stroke-linecap="round"/>
<path d="M131.082 15.2831L131.99 15.7031" stroke="#2F7965" stroke-miterlimit="10" stroke-linecap="round"/>
<path d="M131.99 15.7031L132.899 18.3847" stroke="#2F7965" stroke-miterlimit="10" stroke-linecap="round"/>
<path d="M132.899 18.3846L133.808 21.1286" stroke="#2F7965" stroke-miterlimit="10" stroke-linecap="round"/>
<path d="M133.808 21.1286L134.717 20.5829" stroke="#2F7965" stroke-miterlimit="10" stroke-linecap="round"/>
<path d="M134.717 20.5829L135.626 19.433" stroke="#2F7965" stroke-miterlimit="10" stroke-linecap="round"/>
<path d="M135.626 19.433L136.535 20.0999" stroke="#2F7965" stroke-miterlimit="10" stroke-linecap="round"/>
<path d="M136.535 20.1L137.444 22.9803" stroke="#2F7965" stroke-miterlimit="10" stroke-linecap="round"/>
<path d="M137.444 22.9804L138.353 18.6136" stroke="#2F7965" stroke-miterlimit="10" stroke-linecap="round"/>
<path d="M138.353 18.6136L139.262 12.0521" stroke="#2F7965" stroke-miterlimit="10" stroke-linecap="round"/>
<path d="M139.262 12.0521L140.171 13.7191" stroke="#2F7965" stroke-miterlimit="10" stroke-linecap="round"/>
<path d="M140.171 13.7191L141.08 11.9353" stroke="#2F7965" stroke-miterlimit="10" stroke-linecap="round"/>
<path d="M141.08 11.9353L141.989 7.91357" stroke="#2F7965" stroke-miterlimit="10" stroke-linecap="round"/>
<path d="M141.989 7.9136L142.897 3.38965" stroke="#2F7965" stroke-miterlimit="10" stroke-linecap="round"/>
<path d="M142.897 3.38965L143.806 1.92004" stroke="#2F7965" stroke-miterlimit="10" stroke-linecap="round"/>
<path d="M143.806 1.92004L144.715 9.6291" stroke="#2F7965" stroke-miterlimit="10" stroke-linecap="round"/>
<path d="M144.715 9.62913L145.624 8.69958" stroke="#2F7965" stroke-miterlimit="10" stroke-linecap="round"/>
<path d="M145.624 8.69958L146.533 9.43994" stroke="#2F7965" stroke-miterlimit="10" stroke-linecap="round"/>
<path d="M146.533 9.43994L147.442 10.9263" stroke="#2F7965" stroke-miterlimit="10" stroke-linecap="round"/>
<path d="M147.442 10.9263L148.351 11.5498" stroke="#2F7965" stroke-miterlimit="10" stroke-linecap="round"/>
<path d="M148.351 11.5498L149.26 13.4476" stroke="#2F7965" stroke-miterlimit="10" stroke-linecap="round"/>
<path d="M149.26 13.4476L150.169 16.1825" stroke="#2F7965" stroke-miterlimit="10" stroke-linecap="round"/>
<path d="M150.169 16.1825L151.078 15.2667" stroke="#2F7965" stroke-miterlimit="10" stroke-linecap="round"/>
<path d="M151.078 15.2667L151.987 17.8083" stroke="#2F7965" stroke-miterlimit="10" stroke-linecap="round"/>
<path d="M151.987 17.8084L152.895 16.4304" stroke="#2F7965" stroke-miterlimit="10" stroke-linecap="round"/>
<path d="M152.896 16.4304L153.804 15.0317" stroke="#2F7965" stroke-miterlimit="10" stroke-linecap="round"/>
<path d="M153.804 15.0318L154.713 10.3002" stroke="#2F7965" stroke-miterlimit="10" stroke-linecap="round"/>
<path d="M154.713 10.3002L155.622 12.065" stroke="#2F7965" stroke-miterlimit="10" stroke-linecap="round"/>
<path d="M155.622 12.0651L156.531 12.3223" stroke="#2F7965" stroke-miterlimit="10" stroke-linecap="round"/>
<path d="M156.531 12.3223L157.44 9.99927" stroke="#2F7965" stroke-miterlimit="10" stroke-linecap="round"/>
</g>
</g>
<defs>
<clipPath id="clip0_22_1253">
<rect width="164" height="48" fill="white"/>
</clipPath>
</defs>
</svg>
