<svg width="164" height="48" viewBox="0 0 164 48" fill="none" xmlns="http://www.w3.org/2000/svg">
<g clip-path="url(#clip0_15_558)">
<mask id="mask0_15_558" style="mask-type:luminance" maskUnits="userSpaceOnUse" x="0" y="0" width="164" height="48">
<path d="M164 0H0V48H164V0Z" fill="white"/>
</mask>
<g mask="url(#mask0_15_558)">
<path d="M6.56 4.14423L7.46891 8.32361" stroke="#2F7965" stroke-miterlimit="10" stroke-linecap="round"/>
<path d="M7.46892 8.32359L8.37783 6.76196" stroke="#2F7965" stroke-miterlimit="10" stroke-linecap="round"/>
<path d="M8.37782 6.76199L9.28674 6.32928" stroke="#2F7965" stroke-miterlimit="10" stroke-linecap="round"/>
<path d="M9.28674 6.32928L10.1957 6.48801" stroke="#2F7965" stroke-miterlimit="10" stroke-linecap="round"/>
<path d="M10.1957 6.48801L11.1046 5.69623" stroke="#2F7965" stroke-miterlimit="10" stroke-linecap="round"/>
<path d="M11.1046 5.69624L12.0135 3.24609" stroke="#2F7965" stroke-miterlimit="10" stroke-linecap="round"/>
<path d="M12.0135 3.24609L12.9224 5.80048" stroke="#2F7965" stroke-miterlimit="10" stroke-linecap="round"/>
<path d="M12.9224 5.80048L13.8313 7.07266" stroke="#2F7965" stroke-miterlimit="10" stroke-linecap="round"/>
<path d="M13.8313 7.07263L14.7402 8.812" stroke="#2F7965" stroke-miterlimit="10" stroke-linecap="round"/>
<path d="M14.7402 8.81201L15.6491 9.98097" stroke="#2F7965" stroke-miterlimit="10" stroke-linecap="round"/>
<path d="M15.6492 9.98096L16.5581 11.2801" stroke="#2F7965" stroke-miterlimit="10" stroke-linecap="round"/>
<path d="M16.5581 11.2801L17.467 13.2199" stroke="#2F7965" stroke-miterlimit="10" stroke-linecap="round"/>
<path d="M17.467 13.2199L18.3759 14.789" stroke="#2F7965" stroke-miterlimit="10" stroke-linecap="round"/>
<path d="M18.3759 14.789L19.2848 14.7441" stroke="#2F7965" stroke-miterlimit="10" stroke-linecap="round"/>
<path d="M19.2848 14.7441L20.1937 13.1451" stroke="#2F7965" stroke-miterlimit="10" stroke-linecap="round"/>
<path d="M20.1937 13.1451L21.1026 11.0643" stroke="#2F7965" stroke-miterlimit="10" stroke-linecap="round"/>
<path d="M21.1026 11.0643L22.0116 12.361" stroke="#2F7965" stroke-miterlimit="10" stroke-linecap="round"/>
<path d="M22.0116 12.361L22.9205 12.9091" stroke="#2F7965" stroke-miterlimit="10" stroke-linecap="round"/>
<path d="M22.9205 12.9091L23.8294 14.6691" stroke="#2F7965" stroke-miterlimit="10" stroke-linecap="round"/>
<path d="M23.8294 14.6691L24.7383 15.148" stroke="#2F7965" stroke-miterlimit="10" stroke-linecap="round"/>
<path d="M24.7383 15.1481L25.6472 14.9655" stroke="#2F7965" stroke-miterlimit="10" stroke-linecap="round"/>
<path d="M25.6472 14.9655L26.5561 16.3684" stroke="#2F7965" stroke-miterlimit="10" stroke-linecap="round"/>
<path d="M26.5561 16.3683L27.4651 12.2448" stroke="#2F7965" stroke-miterlimit="10" stroke-linecap="round"/>
<path d="M27.4651 12.2448L28.374 10.9669" stroke="#2F7965" stroke-miterlimit="10" stroke-linecap="round"/>
<path d="M28.374 10.9669L29.2829 11.3219" stroke="#2F7965" stroke-miterlimit="10" stroke-linecap="round"/>
<path d="M29.2829 11.3219L30.1918 13.4847" stroke="#2F7965" stroke-miterlimit="10" stroke-linecap="round"/>
<path d="M30.1918 13.4847L31.1007 14.0024" stroke="#2F7965" stroke-miterlimit="10" stroke-linecap="round"/>
<path d="M31.1007 14.0024L32.0096 10.2467" stroke="#2F7965" stroke-miterlimit="10" stroke-linecap="round"/>
<path d="M32.0096 10.2467L32.9186 15.8222" stroke="#2F7965" stroke-miterlimit="10" stroke-linecap="round"/>
<path d="M32.9185 15.8222L33.8275 14.4859" stroke="#2F7965" stroke-miterlimit="10" stroke-linecap="round"/>
<path d="M33.8275 14.4859L34.7364 12.9271" stroke="#2F7965" stroke-miterlimit="10" stroke-linecap="round"/>
<path d="M34.7364 12.9271L35.6453 11.3594" stroke="#2F7965" stroke-miterlimit="10" stroke-linecap="round"/>
<path d="M35.6453 11.3594L36.5542 11.5808" stroke="#2F7965" stroke-miterlimit="10" stroke-linecap="round"/>
<path d="M36.5542 11.5808L37.4631 10.5301" stroke="#2F7965" stroke-miterlimit="10" stroke-linecap="round"/>
<path d="M37.4631 10.5301L38.3721 14.2729" stroke="#2F7965" stroke-miterlimit="10" stroke-linecap="round"/>
<path d="M38.372 14.2729L39.281 15.8759" stroke="#2F7965" stroke-miterlimit="10" stroke-linecap="round"/>
<path d="M39.281 15.8759L40.1899 26.6503" stroke="#2F7965" stroke-miterlimit="10" stroke-linecap="round"/>
<path d="M40.1899 26.6503L41.0988 23.5842" stroke="#2F7965" stroke-miterlimit="10" stroke-linecap="round"/>
<path d="M41.0988 23.5842L42.0077 27.2647" stroke="#2F7965" stroke-miterlimit="10" stroke-linecap="round"/>
<path d="M42.0077 27.2647L42.9166 25.9842" stroke="#2F7965" stroke-miterlimit="10" stroke-linecap="round"/>
<path d="M42.9166 25.9842L43.8255 27.6452" stroke="#2F7965" stroke-miterlimit="10" stroke-linecap="round"/>
<path d="M43.8255 27.6452L44.7344 30.3394" stroke="#2F7965" stroke-miterlimit="10" stroke-linecap="round"/>
<path d="M44.7345 30.3394L45.6434 26.9579" stroke="#2F7965" stroke-miterlimit="10" stroke-linecap="round"/>
<path d="M45.6434 26.9579L46.5523 30.0231" stroke="#2F7965" stroke-miterlimit="10" stroke-linecap="round"/>
<path d="M46.5523 30.0231L47.4612 28.1898" stroke="#2F7965" stroke-miterlimit="10" stroke-linecap="round"/>
<path d="M47.4612 28.1897L48.3701 25.2621" stroke="#2F7965" stroke-miterlimit="10" stroke-linecap="round"/>
<path d="M48.3701 25.2621L49.279 25.0742" stroke="#2F7965" stroke-miterlimit="10" stroke-linecap="round"/>
<path d="M49.279 25.0742L50.188 24.1475" stroke="#2F7965" stroke-miterlimit="10" stroke-linecap="round"/>
<path d="M50.1879 24.1475L51.0969 23.0926" stroke="#2F7965" stroke-miterlimit="10" stroke-linecap="round"/>
<path d="M51.0969 23.0926L52.0058 24.6871" stroke="#2F7965" stroke-miterlimit="10" stroke-linecap="round"/>
<path d="M52.0058 24.6871L52.9147 27.0938" stroke="#2F7965" stroke-miterlimit="10" stroke-linecap="round"/>
<path d="M52.9147 27.0938L53.8236 35.1002" stroke="#2F7965" stroke-miterlimit="10" stroke-linecap="round"/>
<path d="M53.8236 35.1002L54.7325 41.4178" stroke="#2F7965" stroke-miterlimit="10" stroke-linecap="round"/>
<path d="M54.7325 41.4178L55.6414 44.4812" stroke="#2F7965" stroke-miterlimit="10" stroke-linecap="round"/>
<path d="M55.6414 44.4811L56.5504 45.588" stroke="#2F7965" stroke-miterlimit="10" stroke-linecap="round"/>
<path d="M56.5504 45.588L57.4593 46.08" stroke="#2F7965" stroke-miterlimit="10" stroke-linecap="round"/>
<path d="M57.4593 46.08L58.3682 41.0157" stroke="#2F7965" stroke-miterlimit="10" stroke-linecap="round"/>
<path d="M58.3682 41.0157L59.2771 42.5522" stroke="#2F7965" stroke-miterlimit="10" stroke-linecap="round"/>
<path d="M59.2771 42.5522L60.186 39.3878" stroke="#2F7965" stroke-miterlimit="10" stroke-linecap="round"/>
<path d="M60.186 39.3878L61.0949 43.4713" stroke="#2F7965" stroke-miterlimit="10" stroke-linecap="round"/>
<path d="M61.0949 43.4714L62.0039 35.7903" stroke="#2F7965" stroke-miterlimit="10" stroke-linecap="round"/>
<path d="M62.0038 35.7903L62.9128 37.2668" stroke="#2F7965" stroke-miterlimit="10" stroke-linecap="round"/>
<path d="M62.9128 37.2668L63.8217 37.2068" stroke="#2F7965" stroke-miterlimit="10" stroke-linecap="round"/>
<path d="M63.8217 37.2067L64.7306 36.1639" stroke="#2F7965" stroke-miterlimit="10" stroke-linecap="round"/>
<path d="M64.7306 36.1639L65.6395 36.7763" stroke="#2F7965" stroke-miterlimit="10" stroke-linecap="round"/>
<path d="M65.6395 36.7763L66.5484 33.8651" stroke="#2F7965" stroke-miterlimit="10" stroke-linecap="round"/>
<path d="M66.5484 33.8651L67.4574 32.1157" stroke="#2F7965" stroke-miterlimit="10" stroke-linecap="round"/>
<path d="M67.4574 32.1157L68.3663 34.071" stroke="#2F7965" stroke-miterlimit="10" stroke-linecap="round"/>
<path d="M68.3663 34.071L69.2752 36.9389" stroke="#2F7965" stroke-miterlimit="10" stroke-linecap="round"/>
<path d="M69.2752 36.9389L70.1841 35.068" stroke="#2F7965" stroke-miterlimit="10" stroke-linecap="round"/>
<path d="M70.1841 35.068L71.093 33.1431" stroke="#2F7965" stroke-miterlimit="10" stroke-linecap="round"/>
<path d="M71.093 33.1431L72.0019 36.0995" stroke="#2F7965" stroke-miterlimit="10" stroke-linecap="round"/>
<path d="M72.0019 36.0995L72.9108 33.6613" stroke="#2F7965" stroke-miterlimit="10" stroke-linecap="round"/>
<path d="M72.9108 33.6613L73.8198 36.5988" stroke="#2F7965" stroke-miterlimit="10" stroke-linecap="round"/>
<path d="M73.8198 36.5988L74.7287 34.8358" stroke="#2F7965" stroke-miterlimit="10" stroke-linecap="round"/>
<path d="M74.7287 34.8358L75.6376 34.5165" stroke="#2F7965" stroke-miterlimit="10" stroke-linecap="round"/>
<path d="M75.6376 34.5165L76.5465 35.0509" stroke="#2F7965" stroke-miterlimit="10" stroke-linecap="round"/>
<path d="M76.5465 35.0509L77.4554 34.9399" stroke="#2F7965" stroke-miterlimit="10" stroke-linecap="round"/>
<path d="M77.4554 34.9399L78.3643 34.3609" stroke="#2F7965" stroke-miterlimit="10" stroke-linecap="round"/>
<path d="M78.3643 34.3609L79.2733 34.7201" stroke="#2F7965" stroke-miterlimit="10" stroke-linecap="round"/>
<path d="M79.2733 34.7201L80.1822 33.569" stroke="#2F7965" stroke-miterlimit="10" stroke-linecap="round"/>
<path d="M80.1822 33.569L81.0911 33.6435" stroke="#2F7965" stroke-miterlimit="10" stroke-linecap="round"/>
<path d="M81.0911 33.6435L82 34.5231" stroke="#2F7965" stroke-miterlimit="10" stroke-linecap="round"/>
<path d="M82 34.5231L82.9089 34.0247" stroke="#2F7965" stroke-miterlimit="10" stroke-linecap="round"/>
<path d="M82.9089 34.0247L83.8178 34.2982" stroke="#2F7965" stroke-miterlimit="10" stroke-linecap="round"/>
<path d="M83.8178 34.2982L84.7267 35.6639" stroke="#2F7965" stroke-miterlimit="10" stroke-linecap="round"/>
<path d="M84.7267 35.6639L85.6357 34.8582" stroke="#2F7965" stroke-miterlimit="10" stroke-linecap="round"/>
<path d="M85.6357 34.8582L86.5446 34.8396" stroke="#2F7965" stroke-miterlimit="10" stroke-linecap="round"/>
<path d="M86.5446 34.8396L87.4535 33.8611" stroke="#2F7965" stroke-miterlimit="10" stroke-linecap="round"/>
<path d="M87.4535 33.8611L88.3624 33.6604" stroke="#2F7965" stroke-miterlimit="10" stroke-linecap="round"/>
<path d="M88.3624 33.6604L89.2713 33.0345" stroke="#2F7965" stroke-miterlimit="10" stroke-linecap="round"/>
<path d="M89.2713 33.0345L90.1802 33.4514" stroke="#2F7965" stroke-miterlimit="10" stroke-linecap="round"/>
<path d="M90.1802 33.4513L91.0892 33.2194" stroke="#2F7965" stroke-miterlimit="10" stroke-linecap="round"/>
<path d="M91.0892 33.2194L91.9981 34.5566" stroke="#2F7965" stroke-miterlimit="10" stroke-linecap="round"/>
<path d="M91.9981 34.5566L92.907 34.3501" stroke="#2F7965" stroke-miterlimit="10" stroke-linecap="round"/>
<path d="M92.907 34.3501L93.8159 34.8261" stroke="#2F7965" stroke-miterlimit="10" stroke-linecap="round"/>
<path d="M93.8159 34.826L94.7248 32.7145" stroke="#2F7965" stroke-miterlimit="10" stroke-linecap="round"/>
<path d="M94.7248 32.7145L95.6337 33.7419" stroke="#2F7965" stroke-miterlimit="10" stroke-linecap="round"/>
<path d="M95.6337 33.7419L96.5426 34.7806" stroke="#2F7965" stroke-miterlimit="10" stroke-linecap="round"/>
<path d="M96.5426 34.7806L97.4516 35.2732" stroke="#2F7965" stroke-miterlimit="10" stroke-linecap="round"/>
<path d="M97.4516 35.2732L98.3605 35.252" stroke="#2F7965" stroke-miterlimit="10" stroke-linecap="round"/>
<path d="M98.3605 35.252L99.2694 36.7877" stroke="#2F7965" stroke-miterlimit="10" stroke-linecap="round"/>
<path d="M99.2694 36.7876L100.178 31.6287" stroke="#2F7965" stroke-miterlimit="10" stroke-linecap="round"/>
<path d="M100.178 31.6287L101.087 30.032" stroke="#2F7965" stroke-miterlimit="10" stroke-linecap="round"/>
<path d="M101.087 30.032L101.996 30.0287" stroke="#2F7965" stroke-miterlimit="10" stroke-linecap="round"/>
<path d="M101.996 30.0287L102.905 31.072" stroke="#2F7965" stroke-miterlimit="10" stroke-linecap="round"/>
<path d="M102.905 31.072L103.814 28.334" stroke="#2F7965" stroke-miterlimit="10" stroke-linecap="round"/>
<path d="M103.814 28.334L104.723 26.6018" stroke="#2F7965" stroke-miterlimit="10" stroke-linecap="round"/>
<path d="M104.723 26.6018L105.632 26.6681" stroke="#2F7965" stroke-miterlimit="10" stroke-linecap="round"/>
<path d="M105.632 26.668L106.541 25.5605" stroke="#2F7965" stroke-miterlimit="10" stroke-linecap="round"/>
<path d="M106.541 25.5605L107.45 23.2577" stroke="#2F7965" stroke-miterlimit="10" stroke-linecap="round"/>
<path d="M107.45 23.2577L108.359 21.8246" stroke="#2F7965" stroke-miterlimit="10" stroke-linecap="round"/>
<path d="M108.359 21.8246L109.267 24.1889" stroke="#2F7965" stroke-miterlimit="10" stroke-linecap="round"/>
<path d="M109.267 24.1888L110.176 24.4644" stroke="#2F7965" stroke-miterlimit="10" stroke-linecap="round"/>
<path d="M110.176 24.4644L111.085 25.1083" stroke="#2F7965" stroke-miterlimit="10" stroke-linecap="round"/>
<path d="M111.085 25.1083L111.994 23.0291" stroke="#2F7965" stroke-miterlimit="10" stroke-linecap="round"/>
<path d="M111.994 23.0291L112.903 25.7422" stroke="#2F7965" stroke-miterlimit="10" stroke-linecap="round"/>
<path d="M112.903 25.7422L113.812 28.5814" stroke="#2F7965" stroke-miterlimit="10" stroke-linecap="round"/>
<path d="M113.812 28.5814L114.721 28.3826" stroke="#2F7965" stroke-miterlimit="10" stroke-linecap="round"/>
<path d="M114.721 28.3826L115.63 24.925" stroke="#2F7965" stroke-miterlimit="10" stroke-linecap="round"/>
<path d="M115.63 24.925L116.539 17.8834" stroke="#2F7965" stroke-miterlimit="10" stroke-linecap="round"/>
<path d="M116.539 17.8834L117.448 16.6841" stroke="#2F7965" stroke-miterlimit="10" stroke-linecap="round"/>
<path d="M117.448 16.684L118.357 13.9195" stroke="#2F7965" stroke-miterlimit="10" stroke-linecap="round"/>
<path d="M118.357 13.9195L119.266 12.0953" stroke="#2F7965" stroke-miterlimit="10" stroke-linecap="round"/>
<path d="M119.266 12.0953L120.174 12.7827" stroke="#2F7965" stroke-miterlimit="10" stroke-linecap="round"/>
<path d="M120.174 12.7827L121.083 13.0437" stroke="#2F7965" stroke-miterlimit="10" stroke-linecap="round"/>
<path d="M121.083 13.0437L121.992 14.1134" stroke="#2F7965" stroke-miterlimit="10" stroke-linecap="round"/>
<path d="M121.992 14.1134L122.901 14.976" stroke="#2F7965" stroke-miterlimit="10" stroke-linecap="round"/>
<path d="M122.901 14.976L123.81 13.793" stroke="#2F7965" stroke-miterlimit="10" stroke-linecap="round"/>
<path d="M123.81 13.793L124.719 14.477" stroke="#2F7965" stroke-miterlimit="10" stroke-linecap="round"/>
<path d="M124.719 14.477L125.628 12.8589" stroke="#2F7965" stroke-miterlimit="10" stroke-linecap="round"/>
<path d="M125.628 12.859L126.537 12.3224" stroke="#2F7965" stroke-miterlimit="10" stroke-linecap="round"/>
<path d="M126.537 12.3224L127.446 12.3313" stroke="#2F7965" stroke-miterlimit="10" stroke-linecap="round"/>
<path d="M127.446 12.3313L128.355 15.2111" stroke="#2F7965" stroke-miterlimit="10" stroke-linecap="round"/>
<path d="M128.355 15.2111L129.264 17.4061" stroke="#2F7965" stroke-miterlimit="10" stroke-linecap="round"/>
<path d="M129.264 17.4061L130.173 14.1182" stroke="#2F7965" stroke-miterlimit="10" stroke-linecap="round"/>
<path d="M130.173 14.1182L131.081 14.4803" stroke="#2F7965" stroke-miterlimit="10" stroke-linecap="round"/>
<path d="M131.081 14.4803L131.99 13.6749" stroke="#2F7965" stroke-miterlimit="10" stroke-linecap="round"/>
<path d="M131.99 13.6749L132.899 16.0686" stroke="#2F7965" stroke-miterlimit="10" stroke-linecap="round"/>
<path d="M132.899 16.0686L133.808 14.6821" stroke="#2F7965" stroke-miterlimit="10" stroke-linecap="round"/>
<path d="M133.808 14.6821L134.717 15.9545" stroke="#2F7965" stroke-miterlimit="10" stroke-linecap="round"/>
<path d="M134.717 15.9545L135.626 16.3224" stroke="#2F7965" stroke-miterlimit="10" stroke-linecap="round"/>
<path d="M135.626 16.3224L136.535 19.7245" stroke="#2F7965" stroke-miterlimit="10" stroke-linecap="round"/>
<path d="M136.535 19.7245L137.444 21.377" stroke="#2F7965" stroke-miterlimit="10" stroke-linecap="round"/>
<path d="M137.444 21.377L138.353 22.9995" stroke="#2F7965" stroke-miterlimit="10" stroke-linecap="round"/>
<path d="M138.353 22.9996L139.262 29.9867" stroke="#2F7965" stroke-miterlimit="10" stroke-linecap="round"/>
<path d="M139.262 29.9866L140.171 31.2899" stroke="#2F7965" stroke-miterlimit="10" stroke-linecap="round"/>
<path d="M140.171 31.29L141.08 29.2861" stroke="#2F7965" stroke-miterlimit="10" stroke-linecap="round"/>
<path d="M141.08 29.286L141.988 28.5433" stroke="#2F7965" stroke-miterlimit="10" stroke-linecap="round"/>
<path d="M141.988 28.5433L142.897 30.2526" stroke="#2F7965" stroke-miterlimit="10" stroke-linecap="round"/>
<path d="M142.897 30.2526L143.806 30.3048" stroke="#2F7965" stroke-miterlimit="10" stroke-linecap="round"/>
<path d="M143.806 30.3048L144.715 26.1948" stroke="#2F7965" stroke-miterlimit="10" stroke-linecap="round"/>
<path d="M144.715 26.1947L145.624 26.0617" stroke="#2F7965" stroke-miterlimit="10" stroke-linecap="round"/>
<path d="M145.624 26.0617L146.533 24.4958" stroke="#2F7965" stroke-miterlimit="10" stroke-linecap="round"/>
<path d="M146.533 24.4958L147.442 27.1966" stroke="#2F7965" stroke-miterlimit="10" stroke-linecap="round"/>
<path d="M147.442 27.1966L148.351 8.39886" stroke="#2F7965" stroke-miterlimit="10" stroke-linecap="round"/>
<path d="M148.351 8.39888L149.26 1.91998" stroke="#2F7965" stroke-miterlimit="10" stroke-linecap="round"/>
<path d="M149.26 1.91998L150.169 4.55277" stroke="#2F7965" stroke-miterlimit="10" stroke-linecap="round"/>
<path d="M150.169 4.5528L151.078 8.37703" stroke="#2F7965" stroke-miterlimit="10" stroke-linecap="round"/>
<path d="M151.078 8.37701L151.987 8.60025" stroke="#2F7965" stroke-miterlimit="10" stroke-linecap="round"/>
<path d="M151.987 8.60022L152.895 9.17733" stroke="#2F7965" stroke-miterlimit="10" stroke-linecap="round"/>
<path d="M152.895 9.17737L153.804 13.8935" stroke="#2F7965" stroke-miterlimit="10" stroke-linecap="round"/>
<path d="M153.804 13.8935L154.713 14.1816" stroke="#2F7965" stroke-miterlimit="10" stroke-linecap="round"/>
<path d="M154.713 14.1816L155.622 23.6914" stroke="#2F7965" stroke-miterlimit="10" stroke-linecap="round"/>
<path d="M155.622 23.6913L156.531 26.7088" stroke="#2F7965" stroke-miterlimit="10" stroke-linecap="round"/>
<path d="M156.531 26.7088L157.44 28.5184" stroke="#2F7965" stroke-miterlimit="10" stroke-linecap="round"/>
</g>
</g>
<defs>
<clipPath id="clip0_15_558">
<rect width="164" height="48" fill="white"/>
</clipPath>
</defs>
</svg>
