<svg width="164" height="48" viewBox="0 0 164 48" fill="none" xmlns="http://www.w3.org/2000/svg">
<g clip-path="url(#clip0_22_1599)">
<mask id="mask0_22_1599" style="mask-type:luminance" maskUnits="userSpaceOnUse" x="0" y="0" width="164" height="48">
<path d="M164 0H0V48H164V0Z" fill="white"/>
</mask>
<g mask="url(#mask0_22_1599)">
<path d="M6.56006 19.8719L7.47448 19.234" stroke="#2F7965" stroke-miterlimit="10" stroke-linecap="round"/>
<path d="M7.47437 19.234L8.38879 17.9536" stroke="#2F7965" stroke-miterlimit="10" stroke-linecap="round"/>
<path d="M8.38892 17.9536L9.30334 18.2026" stroke="#2F7965" stroke-miterlimit="10" stroke-linecap="round"/>
<path d="M9.30322 18.2026L10.2176 20.6379" stroke="#2F7965" stroke-miterlimit="10" stroke-linecap="round"/>
<path d="M10.2178 20.6378L11.1322 22.079" stroke="#2F7965" stroke-miterlimit="10" stroke-linecap="round"/>
<path d="M11.1321 22.079L12.0465 26.1702" stroke="#2F7965" stroke-miterlimit="10" stroke-linecap="round"/>
<path d="M12.0466 26.1702L12.9611 26.8292" stroke="#2F7965" stroke-miterlimit="10" stroke-linecap="round"/>
<path d="M12.9609 26.8292L13.8754 27.4863" stroke="#2F7965" stroke-miterlimit="10" stroke-linecap="round"/>
<path d="M13.8755 27.4863L14.7899 24.7399" stroke="#2F7965" stroke-miterlimit="10" stroke-linecap="round"/>
<path d="M14.7898 24.7399L15.7042 26.5674" stroke="#2F7965" stroke-miterlimit="10" stroke-linecap="round"/>
<path d="M15.7043 26.5675L16.6188 29.0229" stroke="#2F7965" stroke-miterlimit="10" stroke-linecap="round"/>
<path d="M16.6187 29.0228L17.5331 30.8201" stroke="#2F7965" stroke-miterlimit="10" stroke-linecap="round"/>
<path d="M17.5332 30.8202L18.4476 32.0224" stroke="#2F7965" stroke-miterlimit="10" stroke-linecap="round"/>
<path d="M18.4475 32.0222L19.3619 31.7573" stroke="#2F7965" stroke-miterlimit="10" stroke-linecap="round"/>
<path d="M19.3621 31.7573L20.2765 32.0732" stroke="#2F7965" stroke-miterlimit="10" stroke-linecap="round"/>
<path d="M20.2764 32.0732L21.1908 29.1128" stroke="#2F7965" stroke-miterlimit="10" stroke-linecap="round"/>
<path d="M21.1909 29.1128L22.1053 29.5071" stroke="#2F7965" stroke-miterlimit="10" stroke-linecap="round"/>
<path d="M22.1052 29.5072L23.0196 30.3658" stroke="#2F7965" stroke-miterlimit="10" stroke-linecap="round"/>
<path d="M23.0198 30.3658L23.9342 30.0822" stroke="#2F7965" stroke-miterlimit="10" stroke-linecap="round"/>
<path d="M23.9341 30.0822L24.8485 30.3074" stroke="#2F7965" stroke-miterlimit="10" stroke-linecap="round"/>
<path d="M24.8486 30.3074L25.7631 28.3474" stroke="#2F7965" stroke-miterlimit="10" stroke-linecap="round"/>
<path d="M25.7629 28.3474L26.6774 29.4386" stroke="#2F7965" stroke-miterlimit="10" stroke-linecap="round"/>
<path d="M26.6775 29.4386L27.5919 31.0128" stroke="#2F7965" stroke-miterlimit="10" stroke-linecap="round"/>
<path d="M27.5918 31.0128L28.5062 25.9427" stroke="#2F7965" stroke-miterlimit="10" stroke-linecap="round"/>
<path d="M28.5063 25.9427L29.4208 24.765" stroke="#2F7965" stroke-miterlimit="10" stroke-linecap="round"/>
<path d="M29.4207 24.765L30.3351 24.2292" stroke="#2F7965" stroke-miterlimit="10" stroke-linecap="round"/>
<path d="M30.3352 24.2292L31.2496 24.6869" stroke="#2F7965" stroke-miterlimit="10" stroke-linecap="round"/>
<path d="M31.2495 24.6869L32.1639 26.6019" stroke="#2F7965" stroke-miterlimit="10" stroke-linecap="round"/>
<path d="M32.1638 26.6019L33.0782 29.6066" stroke="#2F7965" stroke-miterlimit="10" stroke-linecap="round"/>
<path d="M33.0784 29.6066L33.9928 35.3147" stroke="#2F7965" stroke-miterlimit="10" stroke-linecap="round"/>
<path d="M33.9927 35.3147L34.9071 34.0884" stroke="#2F7965" stroke-miterlimit="10" stroke-linecap="round"/>
<path d="M34.9072 34.0884L35.8217 36.8631" stroke="#2F7965" stroke-miterlimit="10" stroke-linecap="round"/>
<path d="M35.8215 36.8632L36.736 36.3438" stroke="#2F7965" stroke-miterlimit="10" stroke-linecap="round"/>
<path d="M36.7361 36.3438L37.6505 37.9957" stroke="#2F7965" stroke-miterlimit="10" stroke-linecap="round"/>
<path d="M37.6504 37.9957L38.5648 39.8189" stroke="#2F7965" stroke-miterlimit="10" stroke-linecap="round"/>
<path d="M38.5649 39.8188L39.4794 37.6388" stroke="#2F7965" stroke-miterlimit="10" stroke-linecap="round"/>
<path d="M39.4792 37.6388L40.3937 38.5351" stroke="#2F7965" stroke-miterlimit="10" stroke-linecap="round"/>
<path d="M40.3938 38.5352L41.3082 38.092" stroke="#2F7965" stroke-miterlimit="10" stroke-linecap="round"/>
<path d="M41.3081 38.0919L42.2225 36.7366" stroke="#2F7965" stroke-miterlimit="10" stroke-linecap="round"/>
<path d="M42.2227 36.7366L43.1371 38.1498" stroke="#2F7965" stroke-miterlimit="10" stroke-linecap="round"/>
<path d="M43.137 38.1499L44.0514 36.7426" stroke="#2F7965" stroke-miterlimit="10" stroke-linecap="round"/>
<path d="M44.0515 36.7425L44.9659 35.453" stroke="#2F7965" stroke-miterlimit="10" stroke-linecap="round"/>
<path d="M44.9658 35.4531L45.8802 34.8619" stroke="#2F7965" stroke-miterlimit="10" stroke-linecap="round"/>
<path d="M45.8804 34.8619L46.7948 34.8564" stroke="#2F7965" stroke-miterlimit="10" stroke-linecap="round"/>
<path d="M46.7947 34.8564L47.7091 39.9786" stroke="#2F7965" stroke-miterlimit="10" stroke-linecap="round"/>
<path d="M47.7092 39.9786L48.6237 44.1219" stroke="#2F7965" stroke-miterlimit="10" stroke-linecap="round"/>
<path d="M48.6235 44.1219L49.538 46.0801" stroke="#2F7965" stroke-miterlimit="10" stroke-linecap="round"/>
<path d="M49.5381 46.0801L50.4525 36.9821" stroke="#2F7965" stroke-miterlimit="10" stroke-linecap="round"/>
<path d="M50.4524 36.982L51.3668 32.7839" stroke="#2F7965" stroke-miterlimit="10" stroke-linecap="round"/>
<path d="M51.3669 32.784L52.2814 31.2572" stroke="#2F7965" stroke-miterlimit="10" stroke-linecap="round"/>
<path d="M52.2812 31.2572L53.1957 31.0132" stroke="#2F7965" stroke-miterlimit="10" stroke-linecap="round"/>
<path d="M53.1958 31.0132L54.1102 30.4854" stroke="#2F7965" stroke-miterlimit="10" stroke-linecap="round"/>
<path d="M54.1101 30.4854L55.0245 32.1103" stroke="#2F7965" stroke-miterlimit="10" stroke-linecap="round"/>
<path d="M55.0247 32.1103L55.9391 28.4269" stroke="#2F7965" stroke-miterlimit="10" stroke-linecap="round"/>
<path d="M55.939 28.4269L56.8534 28.4318" stroke="#2F7965" stroke-miterlimit="10" stroke-linecap="round"/>
<path d="M56.8533 28.4319L57.7677 24.5659" stroke="#2F7965" stroke-miterlimit="10" stroke-linecap="round"/>
<path d="M57.7678 24.5659L58.6822 24.6936" stroke="#2F7965" stroke-miterlimit="10" stroke-linecap="round"/>
<path d="M58.6821 24.6935L59.5966 24.3457" stroke="#2F7965" stroke-miterlimit="10" stroke-linecap="round"/>
<path d="M59.5967 24.3458L60.5111 23.7769" stroke="#2F7965" stroke-miterlimit="10" stroke-linecap="round"/>
<path d="M60.511 23.7768L61.4254 23.3092" stroke="#2F7965" stroke-miterlimit="10" stroke-linecap="round"/>
<path d="M61.4255 23.3092L62.34 25.065" stroke="#2F7965" stroke-miterlimit="10" stroke-linecap="round"/>
<path d="M62.3398 25.0651L63.2543 25.6828" stroke="#2F7965" stroke-miterlimit="10" stroke-linecap="round"/>
<path d="M63.2544 25.6828L64.1688 25.5032" stroke="#2F7965" stroke-miterlimit="10" stroke-linecap="round"/>
<path d="M64.1687 25.5031L65.0831 23.9852" stroke="#2F7965" stroke-miterlimit="10" stroke-linecap="round"/>
<path d="M65.0833 23.9852L65.9977 22.7876" stroke="#2F7965" stroke-miterlimit="10" stroke-linecap="round"/>
<path d="M65.9976 22.7876L66.912 22.5426" stroke="#2F7965" stroke-miterlimit="10" stroke-linecap="round"/>
<path d="M66.9121 22.5426L67.8265 23.5207" stroke="#2F7965" stroke-miterlimit="10" stroke-linecap="round"/>
<path d="M67.8264 23.5207L68.7408 18.6084" stroke="#2F7965" stroke-miterlimit="10" stroke-linecap="round"/>
<path d="M68.741 18.6084L69.6554 16.5275" stroke="#2F7965" stroke-miterlimit="10" stroke-linecap="round"/>
<path d="M69.6553 16.5275L70.5697 18.8445" stroke="#2F7965" stroke-miterlimit="10" stroke-linecap="round"/>
<path d="M70.5698 18.8445L71.4843 19.8824" stroke="#2F7965" stroke-miterlimit="10" stroke-linecap="round"/>
<path d="M71.4841 19.8823L72.3986 19.4932" stroke="#2F7965" stroke-miterlimit="10" stroke-linecap="round"/>
<path d="M72.3987 19.4933L73.3131 18.3934" stroke="#2F7965" stroke-miterlimit="10" stroke-linecap="round"/>
<path d="M73.313 18.3934L74.2274 17.1163" stroke="#2F7965" stroke-miterlimit="10" stroke-linecap="round"/>
<path d="M74.2275 17.1163L75.142 16.0597" stroke="#2F7965" stroke-miterlimit="10" stroke-linecap="round"/>
<path d="M75.1418 16.0597L76.0563 15.8317" stroke="#2F7965" stroke-miterlimit="10" stroke-linecap="round"/>
<path d="M76.0564 15.8317L76.9708 15.0698" stroke="#2F7965" stroke-miterlimit="10" stroke-linecap="round"/>
<path d="M76.9707 15.0697L77.8851 14.9457" stroke="#2F7965" stroke-miterlimit="10" stroke-linecap="round"/>
<path d="M77.8853 14.9457L78.7997 17.4644" stroke="#2F7965" stroke-miterlimit="10" stroke-linecap="round"/>
<path d="M78.7996 17.4645L79.714 15.1704" stroke="#2F7965" stroke-miterlimit="10" stroke-linecap="round"/>
<path d="M79.7141 15.1705L80.6285 13.7793" stroke="#2F7965" stroke-miterlimit="10" stroke-linecap="round"/>
<path d="M80.6284 13.7793L81.5428 14.7157" stroke="#2F7965" stroke-miterlimit="10" stroke-linecap="round"/>
<path d="M81.543 14.7157L82.4574 13.8568" stroke="#2F7965" stroke-miterlimit="10" stroke-linecap="round"/>
<path d="M82.4573 13.8568L83.3717 14.5937" stroke="#2F7965" stroke-miterlimit="10" stroke-linecap="round"/>
<path d="M83.3716 14.5938L84.286 15.8357" stroke="#2F7965" stroke-miterlimit="10" stroke-linecap="round"/>
<path d="M84.2861 15.8356L85.2006 15.9811" stroke="#2F7965" stroke-miterlimit="10" stroke-linecap="round"/>
<path d="M85.2004 15.9811L86.1149 17.6444" stroke="#2F7965" stroke-miterlimit="10" stroke-linecap="round"/>
<path d="M86.115 17.6444L87.0294 16.8921" stroke="#2F7965" stroke-miterlimit="10" stroke-linecap="round"/>
<path d="M87.0293 16.8921L87.9437 17.6518" stroke="#2F7965" stroke-miterlimit="10" stroke-linecap="round"/>
<path d="M87.9438 17.6519L88.8583 17.229" stroke="#2F7965" stroke-miterlimit="10" stroke-linecap="round"/>
<path d="M88.8582 17.229L89.7726 18.8035" stroke="#2F7965" stroke-miterlimit="10" stroke-linecap="round"/>
<path d="M89.7727 18.8034L90.6871 18.2023" stroke="#2F7965" stroke-miterlimit="10" stroke-linecap="round"/>
<path d="M90.687 18.2023L91.6014 19.7586" stroke="#2F7965" stroke-miterlimit="10" stroke-linecap="round"/>
<path d="M91.6016 19.7586L92.516 19.5511" stroke="#2F7965" stroke-miterlimit="10" stroke-linecap="round"/>
<path d="M92.5159 19.5511L93.4303 20.5385" stroke="#2F7965" stroke-miterlimit="10" stroke-linecap="round"/>
<path d="M93.4304 20.5385L94.3448 15.9047" stroke="#2F7965" stroke-miterlimit="10" stroke-linecap="round"/>
<path d="M94.3447 15.9048L95.2592 9.34045" stroke="#2F7965" stroke-miterlimit="10" stroke-linecap="round"/>
<path d="M95.2593 9.34041L96.1737 4.32544" stroke="#2F7965" stroke-miterlimit="10" stroke-linecap="round"/>
<path d="M96.1736 4.32544L97.088 4.99776" stroke="#2F7965" stroke-miterlimit="10" stroke-linecap="round"/>
<path d="M97.0881 4.99778L98.0026 2.47607" stroke="#2F7965" stroke-miterlimit="10" stroke-linecap="round"/>
<path d="M98.0024 2.47607L98.9169 3.1013" stroke="#2F7965" stroke-miterlimit="10" stroke-linecap="round"/>
<path d="M98.917 3.10126L99.8314 1.92004" stroke="#2F7965" stroke-miterlimit="10" stroke-linecap="round"/>
<path d="M99.8313 1.92004L100.746 3.53066" stroke="#2F7965" stroke-miterlimit="10" stroke-linecap="round"/>
<path d="M100.746 3.53064L101.66 4.1325" stroke="#2F7965" stroke-miterlimit="10" stroke-linecap="round"/>
<path d="M101.66 4.13254L102.575 3.54187" stroke="#2F7965" stroke-miterlimit="10" stroke-linecap="round"/>
<path d="M102.575 3.54185L103.489 3.05762" stroke="#2F7965" stroke-miterlimit="10" stroke-linecap="round"/>
<path d="M103.489 3.05762L104.403 4.62797" stroke="#2F7965" stroke-miterlimit="10" stroke-linecap="round"/>
<path d="M104.404 4.62797L105.318 4.41064" stroke="#2F7965" stroke-miterlimit="10" stroke-linecap="round"/>
<path d="M105.318 4.41064L106.232 8.71919" stroke="#2F7965" stroke-miterlimit="10" stroke-linecap="round"/>
<path d="M106.232 8.71924L107.147 12.9929" stroke="#2F7965" stroke-miterlimit="10" stroke-linecap="round"/>
<path d="M107.147 12.9929L108.061 13.4301" stroke="#2F7965" stroke-miterlimit="10" stroke-linecap="round"/>
<path d="M108.061 13.4301L108.975 12.0359" stroke="#2F7965" stroke-miterlimit="10" stroke-linecap="round"/>
<path d="M108.976 12.0359L109.89 10.1855" stroke="#2F7965" stroke-miterlimit="10" stroke-linecap="round"/>
<path d="M109.89 10.1855L110.804 10.4131" stroke="#2F7965" stroke-miterlimit="10" stroke-linecap="round"/>
<path d="M110.804 10.4131L111.719 12.5278" stroke="#2F7965" stroke-miterlimit="10" stroke-linecap="round"/>
<path d="M111.719 12.5278L112.633 12.3416" stroke="#2F7965" stroke-miterlimit="10" stroke-linecap="round"/>
<path d="M112.633 12.3416L113.548 14.1524" stroke="#2F7965" stroke-miterlimit="10" stroke-linecap="round"/>
<path d="M113.548 14.1525L114.462 13.9996" stroke="#2F7965" stroke-miterlimit="10" stroke-linecap="round"/>
<path d="M114.462 13.9996L115.377 14.567" stroke="#2F7965" stroke-miterlimit="10" stroke-linecap="round"/>
<path d="M115.376 14.567L116.291 14.9116" stroke="#2F7965" stroke-miterlimit="10" stroke-linecap="round"/>
<path d="M116.291 14.9117L117.205 12.6173" stroke="#2F7965" stroke-miterlimit="10" stroke-linecap="round"/>
<path d="M117.205 12.6173L118.12 13.528" stroke="#2F7965" stroke-miterlimit="10" stroke-linecap="round"/>
<path d="M118.12 13.528L119.034 11.3148" stroke="#2F7965" stroke-miterlimit="10" stroke-linecap="round"/>
<path d="M119.034 11.3148L119.949 12.7431" stroke="#2F7965" stroke-miterlimit="10" stroke-linecap="round"/>
<path d="M119.949 12.743L120.863 12.8246" stroke="#2F7965" stroke-miterlimit="10" stroke-linecap="round"/>
<path d="M120.863 12.8246L121.777 18.0975" stroke="#2F7965" stroke-miterlimit="10" stroke-linecap="round"/>
<path d="M121.778 18.0975L122.692 18.643" stroke="#2F7965" stroke-miterlimit="10" stroke-linecap="round"/>
<path d="M122.692 18.6429L123.606 20.4359" stroke="#2F7965" stroke-miterlimit="10" stroke-linecap="round"/>
<path d="M123.606 20.436L124.521 20.084" stroke="#2F7965" stroke-miterlimit="10" stroke-linecap="round"/>
<path d="M124.521 20.0839L125.435 18.8021" stroke="#2F7965" stroke-miterlimit="10" stroke-linecap="round"/>
<path d="M125.435 18.8021L126.35 19.8617" stroke="#2F7965" stroke-miterlimit="10" stroke-linecap="round"/>
<path d="M126.35 19.8617L127.264 18.5785" stroke="#2F7965" stroke-miterlimit="10" stroke-linecap="round"/>
<path d="M127.264 18.5785L128.179 19.8867" stroke="#2F7965" stroke-miterlimit="10" stroke-linecap="round"/>
<path d="M128.178 19.8868L129.093 19.5757" stroke="#2F7965" stroke-miterlimit="10" stroke-linecap="round"/>
<path d="M129.093 19.5757L130.007 22.8681" stroke="#2F7965" stroke-miterlimit="10" stroke-linecap="round"/>
<path d="M130.007 22.8682L130.922 22.9373" stroke="#2F7965" stroke-miterlimit="10" stroke-linecap="round"/>
<path d="M130.922 22.9373L131.836 24.4796" stroke="#2F7965" stroke-miterlimit="10" stroke-linecap="round"/>
<path d="M131.836 24.4796L132.751 25.4027" stroke="#2F7965" stroke-miterlimit="10" stroke-linecap="round"/>
<path d="M132.75 25.4026L133.665 22.2379" stroke="#2F7965" stroke-miterlimit="10" stroke-linecap="round"/>
<path d="M133.665 22.238L134.579 21.6877" stroke="#2F7965" stroke-miterlimit="10" stroke-linecap="round"/>
<path d="M134.579 21.6877L135.494 18.6511" stroke="#2F7965" stroke-miterlimit="10" stroke-linecap="round"/>
<path d="M135.494 18.6511L136.408 20.5487" stroke="#2F7965" stroke-miterlimit="10" stroke-linecap="round"/>
<path d="M136.408 20.5487L137.323 21.4677" stroke="#2F7965" stroke-miterlimit="10" stroke-linecap="round"/>
<path d="M137.323 21.4678L138.237 20.7072" stroke="#2F7965" stroke-miterlimit="10" stroke-linecap="round"/>
<path d="M138.237 20.7072L139.151 21.6401" stroke="#2F7965" stroke-miterlimit="10" stroke-linecap="round"/>
<path d="M139.152 21.64L140.066 22.8381" stroke="#2F7965" stroke-miterlimit="10" stroke-linecap="round"/>
<path d="M140.066 22.8381L140.98 23.7642" stroke="#2F7965" stroke-miterlimit="10" stroke-linecap="round"/>
<path d="M140.98 23.7642L141.895 20.3469" stroke="#2F7965" stroke-miterlimit="10" stroke-linecap="round"/>
<path d="M141.895 20.3469L142.809 16.3301" stroke="#2F7965" stroke-miterlimit="10" stroke-linecap="round"/>
<path d="M142.809 16.3301L143.724 19.5587" stroke="#2F7965" stroke-miterlimit="10" stroke-linecap="round"/>
<path d="M143.724 19.5586L144.638 19.1447" stroke="#2F7965" stroke-miterlimit="10" stroke-linecap="round"/>
<path d="M144.638 19.1446L145.553 18.2726" stroke="#2F7965" stroke-miterlimit="10" stroke-linecap="round"/>
<path d="M145.552 18.2726L146.467 16.869" stroke="#2F7965" stroke-miterlimit="10" stroke-linecap="round"/>
<path d="M146.467 16.869L147.381 16.6982" stroke="#2F7965" stroke-miterlimit="10" stroke-linecap="round"/>
<path d="M147.381 16.6982L148.296 13.0309" stroke="#2F7965" stroke-miterlimit="10" stroke-linecap="round"/>
<path d="M148.296 13.0309L149.21 17.0495" stroke="#2F7965" stroke-miterlimit="10" stroke-linecap="round"/>
<path d="M149.21 17.0496L150.125 19.102" stroke="#2F7965" stroke-miterlimit="10" stroke-linecap="round"/>
<path d="M150.125 19.1019L151.039 21.8278" stroke="#2F7965" stroke-miterlimit="10" stroke-linecap="round"/>
<path d="M151.039 21.8279L151.953 20.5481" stroke="#2F7965" stroke-miterlimit="10" stroke-linecap="round"/>
<path d="M151.954 20.5481L152.868 19.6409" stroke="#2F7965" stroke-miterlimit="10" stroke-linecap="round"/>
<path d="M152.868 19.6409L153.782 20.5744" stroke="#2F7965" stroke-miterlimit="10" stroke-linecap="round"/>
<path d="M153.782 20.5745L154.697 21.4006" stroke="#2F7965" stroke-miterlimit="10" stroke-linecap="round"/>
<path d="M154.697 21.4006L155.611 24.0806" stroke="#2F7965" stroke-miterlimit="10" stroke-linecap="round"/>
<path d="M155.611 24.0805L156.526 23.5276" stroke="#2F7965" stroke-miterlimit="10" stroke-linecap="round"/>
<path d="M156.526 23.5276L157.44 19.394" stroke="#2F7965" stroke-miterlimit="10" stroke-linecap="round"/>
</g>
</g>
<defs>
<clipPath id="clip0_22_1599">
<rect width="164" height="48" fill="white"/>
</clipPath>
</defs>
</svg>
